<svg xmlns="http://www.w3.org/2000/svg" xmlns:xlink="http://www.w3.org/1999/xlink" contentStyleType="text/css" data-diagram-type="CLASS" height="994px" preserveAspectRatio="none" style="width:811px;height:994px;background:#FFFFFF;" version="1.1" viewBox="0 0 811 994" width="811px" zoomAndPan="magnify"><title>Hypercert ERD</title><defs/><g><g class="title" data-source-line="1"><text fill="#000000" font-family="sans-serif" font-size="24" font-weight="bold" lengthAdjust="spacing" textLength="157.0547" x="320.3427" y="32.2656">Hypercert ERD</text></g><!--class contributor--><g class="entity" data-entity="contributor" data-source-line="39" data-uid="ent0002" id="entity_contributor"><rect fill="#FFD4A3" height="56.4063" rx="2.5" ry="2.5" style="stroke:#181818;stroke-width:0.5;" width="167.4219" x="94.24" y="617.415"/><ellipse cx="139.3709" cy="633.415" fill="#ADD1B2" rx="11" ry="11" style="stroke:#181818;stroke-width:1;"/><path d="M135.4334,639.415 L142.949,639.415 L142.949,637.3056 L137.949,637.3056 L137.949,634.7588 L142.0427,634.7588 L142.0427,632.665 L137.949,632.665 L137.949,630.4463 L142.7771,630.4463 L142.7771,628.3369 L135.4334,628.3369 L135.4334,639.415 Z " fill="#000000"/><text fill="#000000" font-family="sans-serif" font-size="14" lengthAdjust="spacing" textLength="68.6602" x="159.8709" y="638.2002">contributor</text><line style="stroke:#181818;stroke-width:0.5;" x1="95.24" x2="260.6619" y1="649.415" y2="649.415"/><text fill="#000000" font-family="sans-serif" font-size="14" lengthAdjust="spacing" textLength="155.4219" x="100.24" y="666.4033">DID or name/pseudonym</text></g><!--class activity--><g class="entity" data-entity="activity" data-source-line="45" data-uid="ent0003" id="entity_activity"><rect fill="#B4E5D0" height="221.9063" rx="2.5" ry="2.5" style="stroke:#181818;stroke-width:0.5;" width="115.1201" x="310.45" y="535.125"/><ellipse cx="333.4019" cy="551.8438" fill="#7E57C2" rx="11" ry="11" style="stroke:#181818;stroke-width:1;"/><path d="M330.5894,557.8438 L333.8082,557.8438 C336.8863,557.8438 338.9957,556.0625 338.9957,552.25 C338.9957,548.4375 336.8863,546.7656 333.6519,546.7656 L330.5894,546.7656 L330.5894,557.8438 Z M333.105,555.8281 L333.105,548.7813 L333.5113,548.7813 C335.2457,548.7813 336.4175,549.5938 336.4175,552.25 C336.4175,554.9063 335.2457,555.8281 333.5113,555.8281 L333.105,555.8281 Z " fill="#000000"/><text fill="#000000" font-family="sans-serif" font-size="20" font-weight="bold" lengthAdjust="spacing" textLength="65.4492" x="349.169" y="558.6797">activity</text><line style="stroke:#181818;stroke-width:0.5;" x1="311.45" x2="424.5701" y1="568.5625" y2="568.5625"/><text fill="#000000" font-family="sans-serif" font-size="14" lengthAdjust="spacing" textLength="23.3926" x="316.45" y="585.5508">title</text><text fill="#000000" font-family="sans-serif" font-size="14" lengthAdjust="spacing" textLength="103.1201" x="316.45" y="601.957">shortDescription</text><text fill="#000000" font-family="sans-serif" font-size="14" lengthAdjust="spacing" textLength="76.2002" x="316.45" y="618.3633">description?</text><text fill="#000000" font-family="sans-serif" font-size="14" lengthAdjust="spacing" textLength="45.1992" x="316.45" y="634.7695">image?</text><text fill="#000000" font-family="sans-serif" font-size="14" lengthAdjust="spacing" textLength="69.2549" x="316.45" y="651.1758">workScope</text><text fill="#000000" font-family="sans-serif" font-size="14" lengthAdjust="spacing" textLength="57.5518" x="316.45" y="667.582">startDate</text><text fill="#000000" font-family="sans-serif" font-size="14" lengthAdjust="spacing" textLength="51.8574" x="316.45" y="683.9883">endDate</text><text fill="#000000" font-family="sans-serif" font-size="14" lengthAdjust="spacing" textLength="96.3184" x="316.45" y="700.3945">contributions[]?</text><text fill="#000000" font-family="sans-serif" font-size="14" lengthAdjust="spacing" textLength="42.1436" x="316.45" y="716.8008">rights?</text><text fill="#000000" font-family="sans-serif" font-size="14" lengthAdjust="spacing" textLength="56.6494" x="316.45" y="733.207">location?</text><text fill="#000000" font-family="sans-serif" font-size="14" lengthAdjust="spacing" textLength="60.7236" x="316.45" y="749.6133">createdAt</text></g><!--class evidence--><g class="entity" data-entity="evidence" data-source-line="61" data-uid="ent0004" id="entity_evidence"><rect fill="#F1F1F1" height="138.4375" rx="2.5" ry="2.5" style="stroke:#181818;stroke-width:0.5;" width="115.1201" x="144.45" y="303.625"/><ellipse cx="171.9186" cy="319.625" fill="#7E57C2" rx="11" ry="11" style="stroke:#181818;stroke-width:1;"/><path d="M169.1061,325.625 L172.3249,325.625 C175.403,325.625 177.5124,323.8438 177.5124,320.0313 C177.5124,316.2188 175.403,314.5469 172.1686,314.5469 L169.1061,314.5469 L169.1061,325.625 Z M171.6217,323.6094 L171.6217,316.5625 L172.028,316.5625 C173.7624,316.5625 174.9342,317.375 174.9342,320.0313 C174.9342,322.6875 173.7624,323.6094 172.028,323.6094 L171.6217,323.6094 Z " fill="#000000"/><text fill="#000000" font-family="sans-serif" font-size="14" lengthAdjust="spacing" textLength="55.4121" x="188.6894" y="324.4102">evidence</text><line style="stroke:#181818;stroke-width:0.5;" x1="145.45" x2="258.5701" y1="335.625" y2="335.625"/><text fill="#000000" font-family="sans-serif" font-size="14" lengthAdjust="spacing" textLength="65.0576" x="150.45" y="352.6133">hypercert?</text><text fill="#000000" font-family="sans-serif" font-size="14" lengthAdjust="spacing" textLength="47.3594" x="150.45" y="369.0195">content</text><text fill="#000000" font-family="sans-serif" font-size="14" lengthAdjust="spacing" textLength="30.0098" x="150.45" y="385.4258">title?</text><text fill="#000000" font-family="sans-serif" font-size="14" lengthAdjust="spacing" textLength="103.1201" x="150.45" y="401.832">shortDescription</text><text fill="#000000" font-family="sans-serif" font-size="14" lengthAdjust="spacing" textLength="76.2002" x="150.45" y="418.2383">description?</text><text fill="#000000" font-family="sans-serif" font-size="14" lengthAdjust="spacing" textLength="60.7236" x="150.45" y="434.6445">createdAt</text></g><!--class measurements--><g class="entity" data-entity="measurements" data-source-line="72" data-uid="ent0005" id="entity_measurements"><rect fill="#F1F1F1" height="187.6563" rx="2.5" ry="2.5" style="stroke:#181818;stroke-width:0.5;" width="176.5205" x="482.95" y="279.125"/><ellipse cx="520.8345" cy="295.125" fill="#7E57C2" rx="11" ry="11" style="stroke:#181818;stroke-width:1;"/><path d="M518.022,301.125 L521.2408,301.125 C524.3189,301.125 526.4283,299.3438 526.4283,295.5313 C526.4283,291.7188 524.3189,290.0469 521.0845,290.0469 L518.022,290.0469 L518.022,301.125 Z M520.5376,299.1094 L520.5376,292.0625 L520.9439,292.0625 C522.6783,292.0625 523.8501,292.875 523.8501,295.5313 C523.8501,298.1875 522.6783,299.1094 520.9439,299.1094 L520.5376,299.1094 Z " fill="#000000"/><text fill="#000000" font-family="sans-serif" font-size="14" lengthAdjust="spacing" textLength="93.666" x="539.92" y="299.9102">measurements</text><line style="stroke:#181818;stroke-width:0.5;" x1="483.95" x2="658.4705" y1="311.125" y2="311.125"/><text fill="#000000" font-family="sans-serif" font-size="14" lengthAdjust="spacing" textLength="58.4404" x="488.95" y="328.1133">hypercert</text><text fill="#000000" font-family="sans-serif" font-size="14" lengthAdjust="spacing" textLength="73.8213" x="488.95" y="344.5195">measurers[]</text><text fill="#000000" font-family="sans-serif" font-size="14" lengthAdjust="spacing" textLength="39.7578" x="488.95" y="360.9258">metric</text><text fill="#000000" font-family="sans-serif" font-size="14" lengthAdjust="spacing" textLength="32.9424" x="488.95" y="377.332">value</text><text fill="#000000" font-family="sans-serif" font-size="14" lengthAdjust="spacing" textLength="164.5205" x="488.95" y="393.7383">measurementMethodType</text><text fill="#000000" font-family="sans-serif" font-size="14" lengthAdjust="spacing" textLength="155.7705" x="488.95" y="410.1445">measurementMethodURI</text><text fill="#000000" font-family="sans-serif" font-size="14" lengthAdjust="spacing" textLength="90.9658" x="488.95" y="426.5508">evidenceURI[]?</text><text fill="#000000" font-family="sans-serif" font-size="14" lengthAdjust="spacing" textLength="56.6494" x="488.95" y="442.957">location?</text><text fill="#000000" font-family="sans-serif" font-size="14" lengthAdjust="spacing" textLength="60.7236" x="488.95" y="459.3633">createdAt</text></g><!--class evaluations--><g class="entity" data-entity="evaluations" data-source-line="86" data-uid="ent0006" id="entity_evaluations"><rect fill="#F1F1F1" height="154.8438" rx="2.5" ry="2.5" style="stroke:#181818;stroke-width:0.5;" width="119.707" x="372.45" y="56.125"/><ellipse cx="394.7506" cy="72.125" fill="#7E57C2" rx="11" ry="11" style="stroke:#181818;stroke-width:1;"/><path d="M391.9381,78.125 L395.1569,78.125 C398.235,78.125 400.3444,76.3438 400.3444,72.5313 C400.3444,68.7188 398.235,67.0469 395.0006,67.0469 L391.9381,67.0469 L391.9381,78.125 Z M394.4538,76.1094 L394.4538,69.0625 L394.86,69.0625 C396.5944,69.0625 397.7663,69.875 397.7663,72.5313 C397.7663,75.1875 396.5944,76.1094 394.86,76.1094 L394.4538,76.1094 Z " fill="#000000"/><text fill="#000000" font-family="sans-serif" font-size="14" lengthAdjust="spacing" textLength="71.4834" x="410.373" y="76.9102">evaluations</text><line style="stroke:#181818;stroke-width:0.5;" x1="373.45" x2="491.157" y1="88.125" y2="88.125"/><text fill="#000000" font-family="sans-serif" font-size="14" lengthAdjust="spacing" textLength="45.4863" x="378.45" y="105.1133">subject</text><text fill="#000000" font-family="sans-serif" font-size="14" lengthAdjust="spacing" textLength="58.4814" x="378.45" y="121.5195">summary</text><text fill="#000000" font-family="sans-serif" font-size="14" lengthAdjust="spacing" textLength="72.5156" x="378.45" y="137.9258">evaluators[]</text><text fill="#000000" font-family="sans-serif" font-size="14" lengthAdjust="spacing" textLength="69.4531" x="378.45" y="154.332">evidence[]?</text><text fill="#000000" font-family="sans-serif" font-size="14" lengthAdjust="spacing" textLength="107.707" x="378.45" y="170.7383">measurements[]?</text><text fill="#000000" font-family="sans-serif" font-size="14" lengthAdjust="spacing" textLength="56.6494" x="378.45" y="187.1445">location?</text><text fill="#000000" font-family="sans-serif" font-size="14" lengthAdjust="spacing" textLength="60.7236" x="378.45" y="203.5508">createdAt</text></g><!--class contributions--><g class="entity" data-entity="contributions" data-source-line="98" data-uid="ent0007" id="entity_contributions"><rect fill="#F1F1F1" height="154.8438" rx="2.5" ry="2.5" style="stroke:#181818;stroke-width:0.5;" width="114.2773" x="86.81" y="833.125"/><ellipse cx="101.81" cy="849.125" fill="#7E57C2" rx="11" ry="11" style="stroke:#181818;stroke-width:1;"/><path d="M98.9975,855.125 L102.2163,855.125 C105.2944,855.125 107.4038,853.3438 107.4038,849.5313 C107.4038,845.7188 105.2944,844.0469 102.06,844.0469 L98.9975,844.0469 L98.9975,855.125 Z M101.5131,853.1094 L101.5131,846.0625 L101.9194,846.0625 C103.6538,846.0625 104.8256,846.875 104.8256,849.5313 C104.8256,852.1875 103.6538,853.1094 101.9194,853.1094 L101.5131,853.1094 Z " fill="#000000"/><text fill="#000000" font-family="sans-serif" font-size="14" lengthAdjust="spacing" textLength="82.2773" x="115.81" y="853.9102">contributions</text><line style="stroke:#181818;stroke-width:0.5;" x1="87.81" x2="200.0873" y1="865.125" y2="865.125"/><text fill="#000000" font-family="sans-serif" font-size="14" lengthAdjust="spacing" textLength="58.4404" x="92.81" y="882.1133">hypercert</text><text fill="#000000" font-family="sans-serif" font-size="14" lengthAdjust="spacing" textLength="30.1738" x="92.81" y="898.5195">role?</text><text fill="#000000" font-family="sans-serif" font-size="14" lengthAdjust="spacing" textLength="76.084" x="92.81" y="914.9258">contributor[]</text><text fill="#000000" font-family="sans-serif" font-size="14" lengthAdjust="spacing" textLength="76.2002" x="92.81" y="931.332">description?</text><text fill="#000000" font-family="sans-serif" font-size="14" lengthAdjust="spacing" textLength="57.5518" x="92.81" y="947.7383">startDate</text><text fill="#000000" font-family="sans-serif" font-size="14" lengthAdjust="spacing" textLength="51.8574" x="92.81" y="964.1445">endDate</text><text fill="#000000" font-family="sans-serif" font-size="14" lengthAdjust="spacing" textLength="60.7236" x="92.81" y="980.5508">createdAt</text></g><!--class location--><g class="entity" data-entity="location" data-source-line="110" data-uid="ent0008" id="entity_location"><rect fill="#F1F1F1" height="154.8438" rx="2.5" ry="2.5" style="stroke:#181818;stroke-width:0.5;" width="92.2949" x="527.8" y="833.125"/><ellipse cx="547.4182" cy="849.125" fill="#7E57C2" rx="11" ry="11" style="stroke:#181818;stroke-width:1;"/><path d="M544.6057,855.125 L547.8245,855.125 C550.9026,855.125 553.012,853.3438 553.012,849.5313 C553.012,845.7188 550.9026,844.0469 547.6682,844.0469 L544.6057,844.0469 L544.6057,855.125 Z M547.1213,853.1094 L547.1213,846.0625 L547.5276,846.0625 C549.262,846.0625 550.4338,846.875 550.4338,849.5313 C550.4338,852.1875 549.262,853.1094 547.5276,853.1094 L547.1213,853.1094 Z " fill="#000000"/><text fill="#000000" font-family="sans-serif" font-size="14" lengthAdjust="spacing" textLength="50.0322" x="562.4445" y="853.9102">location</text><line style="stroke:#181818;stroke-width:0.5;" x1="528.8" x2="619.0949" y1="865.125" y2="865.125"/><text fill="#000000" font-family="sans-serif" font-size="14" lengthAdjust="spacing" textLength="58.6934" x="533.8" y="882.1133">lpVersion</text><text fill="#000000" font-family="sans-serif" font-size="14" lengthAdjust="spacing" textLength="19.1953" x="533.8" y="898.5195">srs</text><text fill="#000000" font-family="sans-serif" font-size="14" lengthAdjust="spacing" textLength="80.2949" x="533.8" y="914.9258">locationType</text><text fill="#000000" font-family="sans-serif" font-size="14" lengthAdjust="spacing" textLength="50.0322" x="533.8" y="931.332">location</text><text fill="#000000" font-family="sans-serif" font-size="14" lengthAdjust="spacing" textLength="41.665" x="533.8" y="947.7383">name?</text><text fill="#000000" font-family="sans-serif" font-size="14" lengthAdjust="spacing" textLength="76.2002" x="533.8" y="964.1445">description?</text><text fill="#000000" font-family="sans-serif" font-size="14" lengthAdjust="spacing" textLength="60.7236" x="533.8" y="980.5508">createdAt</text></g><!--class rights--><g class="entity" data-entity="rights" data-source-line="122" data-uid="ent0009" id="entity_rights"><rect fill="#F1F1F1" height="122.0313" rx="2.5" ry="2.5" style="stroke:#181818;stroke-width:0.5;" width="118.4014" x="235.75" y="849.525"/><ellipse cx="273.6438" cy="865.525" fill="#7E57C2" rx="11" ry="11" style="stroke:#181818;stroke-width:1;"/><path d="M270.8313,871.525 L274.05,871.525 C277.1281,871.525 279.2375,869.7438 279.2375,865.9313 C279.2375,862.1188 277.1281,860.4469 273.8938,860.4469 L270.8313,860.4469 L270.8313,871.525 Z M273.3469,869.5094 L273.3469,862.4625 L273.7531,862.4625 C275.4875,862.4625 276.6594,863.275 276.6594,865.9313 C276.6594,868.5875 275.4875,869.5094 273.7531,869.5094 L273.3469,869.5094 Z " fill="#000000"/><text fill="#000000" font-family="sans-serif" font-size="14" lengthAdjust="spacing" textLength="35.5264" x="292.7313" y="870.3102">rights</text><line style="stroke:#181818;stroke-width:0.5;" x1="236.75" x2="353.1514" y1="881.525" y2="881.525"/><text fill="#000000" font-family="sans-serif" font-size="14" lengthAdjust="spacing" textLength="72.8301" x="241.75" y="898.5133">rightsName</text><text fill="#000000" font-family="sans-serif" font-size="14" lengthAdjust="spacing" textLength="65.7891" x="241.75" y="914.9195">rightsType</text><text fill="#000000" font-family="sans-serif" font-size="14" lengthAdjust="spacing" textLength="106.4014" x="241.75" y="931.3258">rightsDescription</text><text fill="#000000" font-family="sans-serif" font-size="14" lengthAdjust="spacing" textLength="71.4424" x="241.75" y="947.732">attachment</text><text fill="#000000" font-family="sans-serif" font-size="14" lengthAdjust="spacing" textLength="60.7236" x="241.75" y="964.1383">createdAt</text></g><!--class collection--><g class="entity" data-entity="collection" data-source-line="132" data-uid="ent0010" id="entity_collection"><rect fill="#F1F1F1" height="122.0313" rx="2.5" ry="2.5" style="stroke:#181818;stroke-width:0.5;" width="121.7373" x="310.45" y="311.625"/><ellipse cx="338.5738" cy="327.625" fill="#7E57C2" rx="11" ry="11" style="stroke:#181818;stroke-width:1;"/><path d="M335.7613,333.625 L338.9801,333.625 C342.0582,333.625 344.1676,331.8438 344.1676,328.0313 C344.1676,324.2188 342.0582,322.5469 338.8238,322.5469 L335.7613,322.5469 L335.7613,333.625 Z M338.277,331.6094 L338.277,324.5625 L338.6832,324.5625 C340.4176,324.5625 341.5895,325.375 341.5895,328.0313 C341.5895,330.6875 340.4176,331.6094 338.6832,331.6094 L338.277,331.6094 Z " fill="#000000"/><text fill="#000000" font-family="sans-serif" font-size="14" lengthAdjust="spacing" textLength="60.5732" x="355.4902" y="332.4102">collection</text><line style="stroke:#181818;stroke-width:0.5;" x1="311.45" x2="431.1873" y1="343.625" y2="343.625"/><text fill="#000000" font-family="sans-serif" font-size="14" lengthAdjust="spacing" textLength="23.3926" x="316.45" y="360.6133">title</text><text fill="#000000" font-family="sans-serif" font-size="14" lengthAdjust="spacing" textLength="109.7373" x="316.45" y="377.0195">shortDescription?</text><text fill="#000000" font-family="sans-serif" font-size="14" lengthAdjust="spacing" textLength="77.9707" x="316.45" y="393.4258">coverPhoto?</text><text fill="#000000" font-family="sans-serif" font-size="14" lengthAdjust="spacing" textLength="48.6787" x="316.45" y="409.832">claims[]</text><text fill="#000000" font-family="sans-serif" font-size="14" lengthAdjust="spacing" textLength="60.7236" x="316.45" y="426.2383">createdAt</text></g><!--class token--><g class="entity" data-entity="token" data-source-line="142" data-uid="ent0011" id="entity_token"><rect fill="#FFB6C1" height="65.8438" rx="2.5" ry="2.5" style="stroke:#181818;stroke-width:0.5;" width="104.2578" x="388.82" y="877.625"/><ellipse cx="413.4932" cy="894.3438" fill="#F1F1F1" rx="11" ry="11" style="stroke:#181818;stroke-width:1;"/><path d="M410.2745,900.3438 L412.7745,900.3438 L412.7745,896.5938 L414.1964,896.5938 C416.5401,896.5938 418.5245,895.4375 418.5245,892.8281 C418.5245,890.1406 416.587,889.2656 414.1964,889.2656 L410.2745,889.2656 L410.2745,900.3438 Z M412.7745,894.5938 L412.7745,891.25 L414.0401,891.25 C415.3682,891.25 416.087,891.6719 416.087,892.8281 C416.087,893.9844 415.4151,894.5938 414.0401,894.5938 L412.7745,894.5938 Z " fill="#000000"/><text fill="#000000" font-family="sans-serif" font-size="20" font-weight="bold" lengthAdjust="spacing" textLength="50.7617" x="429.6429" y="901.1797">token</text><line style="stroke:#181818;stroke-width:0.5;" x1="389.82" x2="492.0778" y1="911.0625" y2="911.0625"/><line style="stroke:#181818;stroke-width:0.5;" x1="389.82" x2="492.0778" y1="919.0625" y2="919.0625"/><text fill="#000000" font-family="sans-serif" font-size="14" lengthAdjust="spacing" textLength="92.2578" x="394.82" y="936.0508">(on-chain only)</text></g><!--link activity to contributions--><g class="link" data-entity-1="activity" data-entity-2="contributions" data-source-line="148" data-uid="lnk12" id="link_activity_contributions"><path codeLine="148" d="M309.45,695.125 C258.78,695.125 305.54,764.325 272.95,803.125 C255.04,824.445 240.11,816.265 217.95,833.125 C212.37,837.375 211.273,838.0349 205.853,842.9049" fill="none" id="activity-to-contributions" style="stroke:#666666;stroke-width:1;"/><polygon fill="#666666" points="201.39,846.915,210.758,843.8751,205.1092,843.5732,205.4111,837.9244,201.39,846.915" style="stroke:#666666;stroke-width:1;"/></g><!--link activity to rights--><g class="link" data-entity-1="activity" data-entity-2="rights" data-source-line="149" data-uid="lnk13" id="link_activity_rights"><path codeLine="149" d="M309.45,711.125 C287.67,711.125 302.93,739.675 310.45,760.125 C316.4,776.275 329.17,773.905 334.95,790.125 C336.89,795.565 335.98,797.435 334.95,803.125 C332.16,818.465 329.3499,828.8397 323.9399,843.6397" fill="none" id="activity-to-rights" style="stroke:#666666;stroke-width:1;"/><polygon fill="#666666" points="321.88,849.275,328.7268,842.1953,323.5966,844.5789,321.213,839.4488,321.88,849.275" style="stroke:#666666;stroke-width:1;"/></g><!--link activity to location--><g class="link" data-entity-1="activity" data-entity-2="location" data-source-line="150" data-uid="lnk14" id="link_activity_location"><path codeLine="150" d="M426.45,728.125 C483.79,728.125 520.1953,777.9308 543.6053,827.4408" fill="none" id="activity-to-location" style="stroke:#666666;stroke-width:1;"/><polygon fill="#666666" points="546.17,832.865,545.939,823.0189,544.0327,828.3448,538.7067,826.4385,546.17,832.865" style="stroke:#666666;stroke-width:1;"/></g><!--link evidence to activity--><g class="link" data-entity-1="evidence" data-entity-2="activity" data-source-line="151" data-uid="lnk15" id="link_evidence_activity"><path codeLine="151" d="M260.45,347.625 C288.21,347.625 276.2,443.775 284.95,470.125 C291.67,490.335 297.7077,505.789 306.6777,525.819" fill="none" id="evidence-to-activity" style="stroke:#666666;stroke-width:1;"/><polygon fill="#666666" points="309.13,531.295,309.1022,521.4462,307.0864,526.7317,301.8009,524.7159,309.13,531.295" style="stroke:#666666;stroke-width:1;"/></g><!--link measurements to activity--><g class="link" data-entity-1="measurements" data-entity-2="activity" data-source-line="152" data-uid="lnk16" id="link_measurements_activity"><path codeLine="152" d="M481.95,323.125 C441.98,323.125 469.57,463.535 455.95,501.125 C450.03,517.475 445.0005,528.7227 436.3305,544.4227" fill="none" id="measurements-to-activity" style="stroke:#666666;stroke-width:1;"/><polygon fill="#666666" points="433.43,549.675,441.2823,543.7302,435.8471,545.298,434.2792,539.8628,433.43,549.675" style="stroke:#666666;stroke-width:1;"/></g><!--link measurements to location--><g class="link" data-entity-1="measurements" data-entity-2="location" data-source-line="153" data-uid="lnk17" id="link_measurements_location"><path codeLine="153" d="M659.95,437.125 C739.41,437.125 654.9279,693.4363 605.5379,827.2263" fill="none" id="measurements-to-location" style="stroke:#666666;stroke-width:1;"/><polygon fill="#666666" points="603.46,832.855,610.3293,825.7972,605.1916,828.1644,602.8244,823.0267,603.46,832.855" style="stroke:#666666;stroke-width:1;"/></g><!--link evaluations to evidence--><g class="link" data-entity-1="evaluations" data-entity-2="evidence" data-source-line="154" data-uid="lnk18" id="link_evaluations_evidence"><path codeLine="154" d="M371.45,149.125 C294.36,149.125 249.8033,229.0657 225.4733,294.0657" fill="none" id="evaluations-to-evidence" style="stroke:#666666;stroke-width:1;"/><polygon fill="#666666" points="223.37,299.685,230.2712,292.6583,225.1228,295.0023,222.7788,289.8539,223.37,299.685" style="stroke:#666666;stroke-width:1;"/></g><!--link evaluations to measurements--><g class="link" data-entity-1="evaluations" data-entity-2="measurements" data-source-line="155" data-uid="lnk19" id="link_evaluations_measurements"><path codeLine="155" d="M492.45,165.125 C543.75,165.125 562.1432,215.5292 568.7132,269.3692" fill="none" id="evaluations-to-measurements" style="stroke:#666666;stroke-width:1;"/><polygon fill="#666666" points="569.44,275.325,572.3204,265.9068,568.8344,270.3618,564.3793,266.8758,569.44,275.325" style="stroke:#666666;stroke-width:1;"/></g><!--link evaluations to activity--><g class="link" data-entity-1="evaluations" data-entity-2="activity" data-source-line="156" data-uid="lnk20" id="link_evaluations_activity"><path codeLine="156" d="M371.45,100.125 C172.36,100.125 6,306.175 118.95,470.125 C162.13,532.795 217.68,485.975 278.95,531.125 C287.22,537.215 290.9058,539.9941 298.3458,547.5341" fill="none" id="evaluations-to-activity" style="stroke:#666666;stroke-width:1;"/><polygon fill="#666666" points="302.56,551.805,299.0859,542.5892,299.0481,548.2459,293.3914,548.2082,302.56,551.805" style="stroke:#666666;stroke-width:1;"/></g><!--link evaluations to location--><g class="link" data-entity-1="evaluations" data-entity-2="location" data-source-line="157" data-uid="lnk21" id="link_evaluations_location"><path codeLine="157" d="M492.45,182.125 C587.47,182.125 632.15,196.125 684.95,275.125 C804.74,454.325 757.76,557.235 684.95,760.125 C671.25,798.295 648.2509,830.4307 624.3409,857.8807" fill="none" id="evaluations-to-location" style="stroke:#666666;stroke-width:1;"/><polygon fill="#666666" points="620.4,862.405,629.3275,858.2457,623.6841,858.6347,623.2951,852.9913,620.4,862.405" style="stroke:#666666;stroke-width:1;"/></g><!--link collection to activity--><g class="link" data-entity-1="collection" data-entity-2="activity" data-source-line="158" data-uid="lnk22" id="link_collection_activity"><path codeLine="158" d="M432.45,404.625 C461.09,404.625 444.8699,463.5689 420.5099,525.7089" fill="none" id="collection-to-activity" style="stroke:#666666;stroke-width:1;"/><polygon fill="#666666" points="418.32,531.295,425.3288,524.3757,420.1449,526.6399,417.8807,521.4559,418.32,531.295" style="stroke:#666666;stroke-width:1;"/></g><!--reverse link activity to token--><g class="link" data-entity-1="activity" data-entity-2="token" data-source-line="159" data-uid="lnk23" id="link_activity_token"><path codeLine="159" d="M401.0459,765.8161 C412.8959,808.4761 423.85,847.955 432.01,877.355" fill="none" id="activity-backto-token" style="stroke:#666666;stroke-width:1;"/><polygon fill="#666666" points="399.44,760.035,397.9947,769.7772,400.7782,764.8526,405.7029,767.6361,399.44,760.035" style="stroke:#666666;stroke-width:1;"/><text fill="#666666" font-family="sans-serif" font-size="10" lengthAdjust="spacing" textLength="42.7246" x="411.99" y="800.4023">tokenizes</text></g><!--link contributor to contributions--><g class="link" data-entity-1="contributor" data-entity-2="contributions" data-source-line="160" data-uid="lnk24" id="link_contributor_contributions"><path codeLine="160" d="M174.38,674.265 C169.55,711.575 161.5291,773.5745 154.6391,826.8845" fill="none" id="contributor-to-contributions" style="stroke:#666666;stroke-width:1;"/><polygon fill="#666666" points="153.87,832.835,158.9906,824.422,154.5109,827.8762,151.0566,823.3965,153.87,832.835" style="stroke:#666666;stroke-width:1;"/><text fill="#666666" font-family="sans-serif" font-size="10" lengthAdjust="spacing" textLength="29.7412" x="159.92" y="800.4023">makes</text></g><!--link contributor to rights--><g class="link" data-entity-1="contributor" data-entity-2="rights" data-source-line="161" data-uid="lnk25" id="link_contributor_rights"><path codeLine="161" d="M190.25,674.265 C208.61,715.525 241.2099,788.7936 265.6799,843.7636" fill="none" id="contributor-to-rights" style="stroke:#666666;stroke-width:1;"/><polygon fill="#666666" points="268.12,849.245,268.1142,839.3961,266.0866,844.6771,260.8056,842.6496,268.12,849.245" style="stroke:#666666;stroke-width:1;"/><text fill="#666666" font-family="sans-serif" font-size="10" lengthAdjust="spacing" textLength="16.1084" x="247.93" y="800.4023">has</text></g><!--SRC=[Kqn9JSlCIrK8zl0FZtVpTFLn2LOeAIfDvU9IpCnBpYbDILLm3NBHAoZDpU420000]--></g></svg>