<svg xmlns="http://www.w3.org/2000/svg" xmlns:xlink="http://www.w3.org/1999/xlink" contentStyleType="text/css" data-diagram-type="CLASS" height="994px" preserveAspectRatio="none" style="width:853px;height:994px;background:#FFFFFF;" version="1.1" viewBox="0 0 853 994" width="853px" zoomAndPan="magnify"><title>Hypercert ERD</title><defs/><g><g class="title" data-source-line="1"><text fill="#000000" font-family="sans-serif" font-size="24" font-weight="bold" lengthAdjust="spacing" textLength="157.0547" x="341.1727" y="32.2656">Hypercert ERD</text></g><!--class contributor--><g class="entity" data-entity="contributor" data-source-line="39" data-uid="ent0002" id="entity_contributor"><rect fill="#FFD4A3" height="56.4063" rx="2.5" ry="2.5" style="stroke:#181818;stroke-width:0.5;" width="167.4219" x="54.93" y="882.335"/><ellipse cx="100.0609" cy="898.335" fill="#ADD1B2" rx="11" ry="11" style="stroke:#181818;stroke-width:1;"/><path d="M96.1234,904.335 L103.639,904.335 L103.639,902.2256 L98.639,902.2256 L98.639,899.6788 L102.7327,899.6788 L102.7327,897.585 L98.639,897.585 L98.639,895.3663 L103.4671,895.3663 L103.4671,893.2569 L96.1234,893.2569 L96.1234,904.335 Z " fill="#000000"/><text fill="#000000" font-family="sans-serif" font-size="14" lengthAdjust="spacing" textLength="68.6602" x="120.5609" y="903.1202">contributor</text><line style="stroke:#181818;stroke-width:0.5;" x1="55.93" x2="221.3519" y1="914.335" y2="914.335"/><text fill="#000000" font-family="sans-serif" font-size="14" lengthAdjust="spacing" textLength="155.4219" x="60.93" y="931.3233">DID or name/pseudonym</text></g><!--class activity--><g class="entity" data-entity="activity" data-source-line="45" data-uid="ent0003" id="entity_activity"><rect fill="#B4E5D0" height="221.9063" rx="2.5" ry="2.5" style="stroke:#181818;stroke-width:0.5;" width="115.1201" x="271.14" y="535.125"/><ellipse cx="294.0919" cy="551.8438" fill="#7E57C2" rx="11" ry="11" style="stroke:#181818;stroke-width:1;"/><path d="M291.2794,557.8438 L294.4982,557.8438 C297.5763,557.8438 299.6857,556.0625 299.6857,552.25 C299.6857,548.4375 297.5763,546.7656 294.3419,546.7656 L291.2794,546.7656 L291.2794,557.8438 Z M293.795,555.8281 L293.795,548.7813 L294.2013,548.7813 C295.9357,548.7813 297.1075,549.5938 297.1075,552.25 C297.1075,554.9063 295.9357,555.8281 294.2013,555.8281 L293.795,555.8281 Z " fill="#000000"/><text fill="#000000" font-family="sans-serif" font-size="20" font-weight="bold" lengthAdjust="spacing" textLength="65.4492" x="309.859" y="558.6797">activity</text><line style="stroke:#181818;stroke-width:0.5;" x1="272.14" x2="385.2601" y1="568.5625" y2="568.5625"/><text fill="#000000" font-family="sans-serif" font-size="14" lengthAdjust="spacing" textLength="23.3926" x="277.14" y="585.5508">title</text><text fill="#000000" font-family="sans-serif" font-size="14" lengthAdjust="spacing" textLength="103.1201" x="277.14" y="601.957">shortDescription</text><text fill="#000000" font-family="sans-serif" font-size="14" lengthAdjust="spacing" textLength="76.2002" x="277.14" y="618.3633">description?</text><text fill="#000000" font-family="sans-serif" font-size="14" lengthAdjust="spacing" textLength="45.1992" x="277.14" y="634.7695">image?</text><text fill="#000000" font-family="sans-serif" font-size="14" lengthAdjust="spacing" textLength="75.8721" x="277.14" y="651.1758">workScope?</text><text fill="#000000" font-family="sans-serif" font-size="14" lengthAdjust="spacing" textLength="57.5518" x="277.14" y="667.582">startDate</text><text fill="#000000" font-family="sans-serif" font-size="14" lengthAdjust="spacing" textLength="51.8574" x="277.14" y="683.9883">endDate</text><text fill="#000000" font-family="sans-serif" font-size="14" lengthAdjust="spacing" textLength="96.3184" x="277.14" y="700.3945">contributions[]?</text><text fill="#000000" font-family="sans-serif" font-size="14" lengthAdjust="spacing" textLength="56.6494" x="277.14" y="716.8008">location?</text><text fill="#000000" font-family="sans-serif" font-size="14" lengthAdjust="spacing" textLength="42.1436" x="277.14" y="733.207">rights?</text><text fill="#000000" font-family="sans-serif" font-size="14" lengthAdjust="spacing" textLength="60.7236" x="277.14" y="749.6133">createdAt</text></g><!--class evidence--><g class="entity" data-entity="evidence" data-source-line="61" data-uid="ent0004" id="entity_evidence"><rect fill="#F1F1F1" height="138.4375" rx="2.5" ry="2.5" style="stroke:#181818;stroke-width:0.5;" width="121.7373" x="330.14" y="303.625"/><ellipse cx="360.5863" cy="319.625" fill="#7E57C2" rx="11" ry="11" style="stroke:#181818;stroke-width:1;"/><path d="M357.7738,325.625 L360.9926,325.625 C364.0707,325.625 366.1801,323.8438 366.1801,320.0313 C366.1801,316.2188 364.0707,314.5469 360.8363,314.5469 L357.7738,314.5469 L357.7738,325.625 Z M360.2895,323.6094 L360.2895,316.5625 L360.6957,316.5625 C362.4301,316.5625 363.602,317.375 363.602,320.0313 C363.602,322.6875 362.4301,323.6094 360.6957,323.6094 L360.2895,323.6094 Z " fill="#000000"/><text fill="#000000" font-family="sans-serif" font-size="14" lengthAdjust="spacing" textLength="55.4121" x="378.0189" y="324.4102">evidence</text><line style="stroke:#181818;stroke-width:0.5;" x1="331.14" x2="450.8773" y1="335.625" y2="335.625"/><text fill="#000000" font-family="sans-serif" font-size="14" lengthAdjust="spacing" textLength="50.9346" x="336.14" y="352.6133">activity?</text><text fill="#000000" font-family="sans-serif" font-size="14" lengthAdjust="spacing" textLength="47.3594" x="336.14" y="369.0195">content</text><text fill="#000000" font-family="sans-serif" font-size="14" lengthAdjust="spacing" textLength="23.3926" x="336.14" y="385.4258">title</text><text fill="#000000" font-family="sans-serif" font-size="14" lengthAdjust="spacing" textLength="109.7373" x="336.14" y="401.832">shortDescription?</text><text fill="#000000" font-family="sans-serif" font-size="14" lengthAdjust="spacing" textLength="76.2002" x="336.14" y="418.2383">description?</text><text fill="#000000" font-family="sans-serif" font-size="14" lengthAdjust="spacing" textLength="60.7236" x="336.14" y="434.6445">createdAt</text></g><!--class measurement--><g class="entity" data-entity="measurement" data-source-line="72" data-uid="ent0005" id="entity_measurement"><rect fill="#F1F1F1" height="187.6563" rx="2.5" ry="2.5" style="stroke:#181818;stroke-width:0.5;" width="176.5205" x="502.64" y="279.125"/><ellipse cx="543.776" cy="295.125" fill="#7E57C2" rx="11" ry="11" style="stroke:#181818;stroke-width:1;"/><path d="M540.9635,301.125 L544.1823,301.125 C547.2604,301.125 549.3698,299.3438 549.3698,295.5313 C549.3698,291.7188 547.2604,290.0469 544.026,290.0469 L540.9635,290.0469 L540.9635,301.125 Z M543.4792,299.1094 L543.4792,292.0625 L543.8854,292.0625 C545.6198,292.0625 546.7917,292.875 546.7917,295.5313 C546.7917,298.1875 545.6198,299.1094 543.8854,299.1094 L543.4792,299.1094 Z " fill="#000000"/><text fill="#000000" font-family="sans-serif" font-size="14" lengthAdjust="spacing" textLength="86.4404" x="563.584" y="299.9102">measurement</text><line style="stroke:#181818;stroke-width:0.5;" x1="503.64" x2="678.1605" y1="311.125" y2="311.125"/><text fill="#000000" font-family="sans-serif" font-size="14" lengthAdjust="spacing" textLength="44.3174" x="508.64" y="328.1133">activity</text><text fill="#000000" font-family="sans-serif" font-size="14" lengthAdjust="spacing" textLength="73.8213" x="508.64" y="344.5195">measurers[]</text><text fill="#000000" font-family="sans-serif" font-size="14" lengthAdjust="spacing" textLength="39.7578" x="508.64" y="360.9258">metric</text><text fill="#000000" font-family="sans-serif" font-size="14" lengthAdjust="spacing" textLength="32.9424" x="508.64" y="377.332">value</text><text fill="#000000" font-family="sans-serif" font-size="14" lengthAdjust="spacing" textLength="164.5205" x="508.64" y="393.7383">measurementMethodType</text><text fill="#000000" font-family="sans-serif" font-size="14" lengthAdjust="spacing" textLength="155.7705" x="508.64" y="410.1445">measurementMethodURI</text><text fill="#000000" font-family="sans-serif" font-size="14" lengthAdjust="spacing" textLength="90.9658" x="508.64" y="426.5508">evidenceURI[]?</text><text fill="#000000" font-family="sans-serif" font-size="14" lengthAdjust="spacing" textLength="56.6494" x="508.64" y="442.957">location?</text><text fill="#000000" font-family="sans-serif" font-size="14" lengthAdjust="spacing" textLength="60.7236" x="508.64" y="459.3633">createdAt</text></g><!--class evaluation--><g class="entity" data-entity="evaluation" data-source-line="86" data-uid="ent0006" id="entity_evaluation"><rect fill="#F1F1F1" height="154.8438" rx="2.5" ry="2.5" style="stroke:#181818;stroke-width:0.5;" width="119.707" x="456.14" y="56.125"/><ellipse cx="481.6921" cy="72.125" fill="#7E57C2" rx="11" ry="11" style="stroke:#181818;stroke-width:1;"/><path d="M478.8796,78.125 L482.0984,78.125 C485.1765,78.125 487.2859,76.3438 487.2859,72.5313 C487.2859,68.7188 485.1765,67.0469 481.9421,67.0469 L478.8796,67.0469 L478.8796,78.125 Z M481.3953,76.1094 L481.3953,69.0625 L481.8015,69.0625 C483.5359,69.0625 484.7078,69.875 484.7078,72.5313 C484.7078,75.1875 483.5359,76.1094 481.8015,76.1094 L481.3953,76.1094 Z " fill="#000000"/><text fill="#000000" font-family="sans-serif" font-size="14" lengthAdjust="spacing" textLength="64.2578" x="498.0371" y="76.9102">evaluation</text><line style="stroke:#181818;stroke-width:0.5;" x1="457.14" x2="574.847" y1="88.125" y2="88.125"/><text fill="#000000" font-family="sans-serif" font-size="14" lengthAdjust="spacing" textLength="45.4863" x="462.14" y="105.1133">subject</text><text fill="#000000" font-family="sans-serif" font-size="14" lengthAdjust="spacing" textLength="58.4814" x="462.14" y="121.5195">summary</text><text fill="#000000" font-family="sans-serif" font-size="14" lengthAdjust="spacing" textLength="72.5156" x="462.14" y="137.9258">evaluators[]</text><text fill="#000000" font-family="sans-serif" font-size="14" lengthAdjust="spacing" textLength="69.4531" x="462.14" y="154.332">evidence[]?</text><text fill="#000000" font-family="sans-serif" font-size="14" lengthAdjust="spacing" textLength="56.6494" x="462.14" y="170.7383">location?</text><text fill="#000000" font-family="sans-serif" font-size="14" lengthAdjust="spacing" textLength="107.707" x="462.14" y="187.1445">measurements[]?</text><text fill="#000000" font-family="sans-serif" font-size="14" lengthAdjust="spacing" textLength="60.7236" x="462.14" y="203.5508">createdAt</text></g><!--class contribution--><g class="entity" data-entity="contribution" data-source-line="98" data-uid="ent0007" id="entity_contribution"><rect fill="#F1F1F1" height="138.4375" rx="2.5" ry="2.5" style="stroke:#181818;stroke-width:0.5;" width="107.0518" x="105.14" y="576.625"/><ellipse cx="120.14" cy="592.625" fill="#7E57C2" rx="11" ry="11" style="stroke:#181818;stroke-width:1;"/><path d="M117.3275,598.625 L120.5463,598.625 C123.6244,598.625 125.7338,596.8438 125.7338,593.0313 C125.7338,589.2188 123.6244,587.5469 120.39,587.5469 L117.3275,587.5469 L117.3275,598.625 Z M119.8431,596.6094 L119.8431,589.5625 L120.2494,589.5625 C121.9838,589.5625 123.1556,590.375 123.1556,593.0313 C123.1556,595.6875 121.9838,596.6094 120.2494,596.6094 L119.8431,596.6094 Z " fill="#000000"/><text fill="#000000" font-family="sans-serif" font-size="14" lengthAdjust="spacing" textLength="75.0518" x="134.14" y="597.4102">contribution</text><line style="stroke:#181818;stroke-width:0.5;" x1="106.14" x2="211.1918" y1="608.625" y2="608.625"/><text fill="#000000" font-family="sans-serif" font-size="14" lengthAdjust="spacing" textLength="30.1738" x="111.14" y="625.6133">role?</text><text fill="#000000" font-family="sans-serif" font-size="14" lengthAdjust="spacing" textLength="83.3096" x="111.14" y="642.0195">contributors[]</text><text fill="#000000" font-family="sans-serif" font-size="14" lengthAdjust="spacing" textLength="76.2002" x="111.14" y="658.4258">description?</text><text fill="#000000" font-family="sans-serif" font-size="14" lengthAdjust="spacing" textLength="57.5518" x="111.14" y="674.832">startDate</text><text fill="#000000" font-family="sans-serif" font-size="14" lengthAdjust="spacing" textLength="51.8574" x="111.14" y="691.2383">endDate</text><text fill="#000000" font-family="sans-serif" font-size="14" lengthAdjust="spacing" textLength="60.7236" x="111.14" y="707.6445">createdAt</text></g><!--class location--><g class="entity" data-entity="location" data-source-line="109" data-uid="ent0008" id="entity_location"><rect fill="#F1F1F1" height="154.8438" rx="2.5" ry="2.5" style="stroke:#181818;stroke-width:0.5;" width="92.2949" x="583.49" y="833.125"/><ellipse cx="603.1082" cy="849.125" fill="#7E57C2" rx="11" ry="11" style="stroke:#181818;stroke-width:1;"/><path d="M600.2957,855.125 L603.5145,855.125 C606.5926,855.125 608.702,853.3438 608.702,849.5313 C608.702,845.7188 606.5926,844.0469 603.3582,844.0469 L600.2957,844.0469 L600.2957,855.125 Z M602.8113,853.1094 L602.8113,846.0625 L603.2176,846.0625 C604.952,846.0625 606.1238,846.875 606.1238,849.5313 C606.1238,852.1875 604.952,853.1094 603.2176,853.1094 L602.8113,853.1094 Z " fill="#000000"/><text fill="#000000" font-family="sans-serif" font-size="14" lengthAdjust="spacing" textLength="50.0322" x="618.1345" y="853.9102">location</text><line style="stroke:#181818;stroke-width:0.5;" x1="584.49" x2="674.7849" y1="865.125" y2="865.125"/><text fill="#000000" font-family="sans-serif" font-size="14" lengthAdjust="spacing" textLength="58.6934" x="589.49" y="882.1133">lpVersion</text><text fill="#000000" font-family="sans-serif" font-size="14" lengthAdjust="spacing" textLength="19.1953" x="589.49" y="898.5195">srs</text><text fill="#000000" font-family="sans-serif" font-size="14" lengthAdjust="spacing" textLength="80.2949" x="589.49" y="914.9258">locationType</text><text fill="#000000" font-family="sans-serif" font-size="14" lengthAdjust="spacing" textLength="50.0322" x="589.49" y="931.332">location</text><text fill="#000000" font-family="sans-serif" font-size="14" lengthAdjust="spacing" textLength="41.665" x="589.49" y="947.7383">name?</text><text fill="#000000" font-family="sans-serif" font-size="14" lengthAdjust="spacing" textLength="76.2002" x="589.49" y="964.1445">description?</text><text fill="#000000" font-family="sans-serif" font-size="14" lengthAdjust="spacing" textLength="60.7236" x="589.49" y="980.5508">createdAt</text></g><!--class rights--><g class="entity" data-entity="rights" data-source-line="121" data-uid="ent0009" id="entity_rights"><rect fill="#F1F1F1" height="122.0313" rx="2.5" ry="2.5" style="stroke:#181818;stroke-width:0.5;" width="118.4014" x="274.44" y="849.525"/><ellipse cx="312.3338" cy="865.525" fill="#7E57C2" rx="11" ry="11" style="stroke:#181818;stroke-width:1;"/><path d="M309.5213,871.525 L312.74,871.525 C315.8181,871.525 317.9275,869.7438 317.9275,865.9313 C317.9275,862.1188 315.8181,860.4469 312.5838,860.4469 L309.5213,860.4469 L309.5213,871.525 Z M312.0369,869.5094 L312.0369,862.4625 L312.4431,862.4625 C314.1775,862.4625 315.3494,863.275 315.3494,865.9313 C315.3494,868.5875 314.1775,869.5094 312.4431,869.5094 L312.0369,869.5094 Z " fill="#000000"/><text fill="#000000" font-family="sans-serif" font-size="14" lengthAdjust="spacing" textLength="35.5264" x="331.4213" y="870.3102">rights</text><line style="stroke:#181818;stroke-width:0.5;" x1="275.44" x2="391.8414" y1="881.525" y2="881.525"/><text fill="#000000" font-family="sans-serif" font-size="14" lengthAdjust="spacing" textLength="72.8301" x="280.44" y="898.5133">rightsName</text><text fill="#000000" font-family="sans-serif" font-size="14" lengthAdjust="spacing" textLength="65.7891" x="280.44" y="914.9195">rightsType</text><text fill="#000000" font-family="sans-serif" font-size="14" lengthAdjust="spacing" textLength="106.4014" x="280.44" y="931.3258">rightsDescription</text><text fill="#000000" font-family="sans-serif" font-size="14" lengthAdjust="spacing" textLength="71.4424" x="280.44" y="947.732">attachment</text><text fill="#000000" font-family="sans-serif" font-size="14" lengthAdjust="spacing" textLength="60.7236" x="280.44" y="964.1383">createdAt</text></g><!--class collection--><g class="entity" data-entity="collection" data-source-line="131" data-uid="ent0010" id="entity_collection"><rect fill="#F1F1F1" height="122.0313" rx="2.5" ry="2.5" style="stroke:#181818;stroke-width:0.5;" width="121.7373" x="158.14" y="311.625"/><ellipse cx="186.2638" cy="327.625" fill="#7E57C2" rx="11" ry="11" style="stroke:#181818;stroke-width:1;"/><path d="M183.4513,333.625 L186.6701,333.625 C189.7482,333.625 191.8576,331.8438 191.8576,328.0313 C191.8576,324.2188 189.7482,322.5469 186.5138,322.5469 L183.4513,322.5469 L183.4513,333.625 Z M185.967,331.6094 L185.967,324.5625 L186.3732,324.5625 C188.1076,324.5625 189.2795,325.375 189.2795,328.0313 C189.2795,330.6875 188.1076,331.6094 186.3732,331.6094 L185.967,331.6094 Z " fill="#000000"/><text fill="#000000" font-family="sans-serif" font-size="14" lengthAdjust="spacing" textLength="60.5732" x="203.1802" y="332.4102">collection</text><line style="stroke:#181818;stroke-width:0.5;" x1="159.14" x2="278.8773" y1="343.625" y2="343.625"/><text fill="#000000" font-family="sans-serif" font-size="14" lengthAdjust="spacing" textLength="23.3926" x="164.14" y="360.6133">title</text><text fill="#000000" font-family="sans-serif" font-size="14" lengthAdjust="spacing" textLength="109.7373" x="164.14" y="377.0195">shortDescription?</text><text fill="#000000" font-family="sans-serif" font-size="14" lengthAdjust="spacing" textLength="77.9707" x="164.14" y="393.4258">coverPhoto?</text><text fill="#000000" font-family="sans-serif" font-size="14" lengthAdjust="spacing" textLength="48.6787" x="164.14" y="409.832">claims[]</text><text fill="#000000" font-family="sans-serif" font-size="14" lengthAdjust="spacing" textLength="60.7236" x="164.14" y="426.2383">createdAt</text></g><!--class token--><g class="entity" data-entity="token" data-source-line="141" data-uid="ent0011" id="entity_token"><rect fill="#FFB6C1" height="65.8438" rx="2.5" ry="2.5" style="stroke:#181818;stroke-width:0.5;" width="104.2578" x="472.51" y="612.695"/><ellipse cx="497.1832" cy="629.4138" fill="#F1F1F1" rx="11" ry="11" style="stroke:#181818;stroke-width:1;"/><path d="M493.9645,635.4138 L496.4645,635.4138 L496.4645,631.6638 L497.8864,631.6638 C500.2301,631.6638 502.2145,630.5075 502.2145,627.8981 C502.2145,625.2106 500.277,624.3356 497.8864,624.3356 L493.9645,624.3356 L493.9645,635.4138 Z M496.4645,629.6638 L496.4645,626.32 L497.7301,626.32 C499.0582,626.32 499.777,626.7419 499.777,627.8981 C499.777,629.0544 499.1051,629.6638 497.7301,629.6638 L496.4645,629.6638 Z " fill="#000000"/><text fill="#000000" font-family="sans-serif" font-size="20" font-weight="bold" lengthAdjust="spacing" textLength="50.7617" x="513.3329" y="636.2497">token</text><line style="stroke:#181818;stroke-width:0.5;" x1="473.51" x2="575.7678" y1="646.1325" y2="646.1325"/><line style="stroke:#181818;stroke-width:0.5;" x1="473.51" x2="575.7678" y1="654.1325" y2="654.1325"/><text fill="#000000" font-family="sans-serif" font-size="14" lengthAdjust="spacing" textLength="92.2578" x="478.51" y="671.1208">(on-chain only)</text></g><!--reverse link contribution to activity--><g class="link" data-entity-1="contribution" data-entity-2="activity" data-source-line="147" data-uid="lnk13" id="link_contribution_activity"><path codeLine="147" d="M225.5907,685.7682 C241.3107,692.5382 253.11,695.125 270.14,695.125" fill="none" id="contribution-backto-activity" style="stroke:#666666;stroke-width:1;"/><polygon fill="#666666" points="220.08,683.395,226.7639,690.6287,224.6722,685.3727,229.9282,683.2811,220.08,683.395" style="stroke:#666666;stroke-width:1;"/></g><!--link activity to rights--><g class="link" data-entity-1="activity" data-entity-2="rights" data-source-line="148" data-uid="lnk14" id="link_activity_rights"><path codeLine="148" d="M387.14,728.125 C438.7,728.125 410.0219,791.2373 377.7219,844.0173" fill="none" id="activity-to-rights" style="stroke:#666666;stroke-width:1;"/><polygon fill="#666666" points="374.59,849.135,382.6997,843.5464,377.1999,844.8702,375.8761,839.3705,374.59,849.135" style="stroke:#666666;stroke-width:1;"/></g><!--link activity to location--><g class="link" data-entity-1="activity" data-entity-2="location" data-source-line="149" data-uid="lnk15" id="link_activity_location"><path codeLine="149" d="M387.14,711.125 C393.36,711.125 510.0215,808.6491 578.6615,866.4791" fill="none" id="activity-to-location" style="stroke:#666666;stroke-width:1;"/><polygon fill="#666666" points="583.25,870.345,578.9444,861.4871,579.4262,867.1234,573.7899,867.6052,583.25,870.345" style="stroke:#666666;stroke-width:1;"/></g><!--link evidence to activity--><g class="link" data-entity-1="evidence" data-entity-2="activity" data-source-line="150" data-uid="lnk16" id="link_evidence_activity"><path codeLine="150" d="M329.14,347.625 C310,347.625 312.4864,441.5693 318.2864,525.5093" fill="none" id="evidence-to-activity" style="stroke:#666666;stroke-width:1;"/><polygon fill="#666666" points="318.7,531.495,322.0701,522.2407,318.3553,526.5069,314.0891,522.7921,318.7,531.495" style="stroke:#666666;stroke-width:1;"/></g><!--link measurement to activity--><g class="link" data-entity-1="measurement" data-entity-2="activity" data-source-line="151" data-uid="lnk17" id="link_measurement_activity"><path codeLine="151" d="M501.64,323.125 C468.51,323.125 490.63,440.085 476.64,470.125 C456.85,512.615 428.0056,548.6675 398.1856,579.8675" fill="none" id="measurement-to-activity" style="stroke:#666666;stroke-width:1;"/><polygon fill="#666666" points="394.04,584.205,403.1501,580.4625,397.4947,580.5904,397.3668,574.935,394.04,584.205" style="stroke:#666666;stroke-width:1;"/></g><!--link measurement to location--><g class="link" data-entity-1="measurement" data-entity-2="location" data-source-line="152" data-uid="lnk18" id="link_measurement_location"><path codeLine="152" d="M679.64,437.125 C718.95,437.125 673.1575,693.1797 646.6175,826.9697" fill="none" id="measurement-to-location" style="stroke:#666666;stroke-width:1;"/><polygon fill="#666666" points="645.45,832.855,651.1248,824.8053,646.4229,827.9506,643.2777,823.2487,645.45,832.855" style="stroke:#666666;stroke-width:1;"/></g><!--link evaluation to evidence--><g class="link" data-entity-1="evaluation" data-entity-2="evidence" data-source-line="153" data-uid="lnk19" id="link_evaluation_evidence"><path codeLine="153" d="M455.14,149.125 C391.29,149.125 381.6436,228.6879 383.6636,293.6879" fill="none" id="evaluation-to-evidence" style="stroke:#666666;stroke-width:1;"/><polygon fill="#666666" points="383.85,299.685,387.5685,290.5651,383.6947,294.6874,379.5724,290.8136,383.85,299.685" style="stroke:#666666;stroke-width:1;"/></g><!--link evaluation to measurement--><g class="link" data-entity-1="evaluation" data-entity-2="measurement" data-source-line="154" data-uid="lnk20" id="link_evaluation_measurement"><path codeLine="154" d="M576.14,182.125 C617.88,182.125 622.7477,222.4538 616.1477,269.2638" fill="none" id="evaluation-to-measurement" style="stroke:#666666;stroke-width:1;"/><polygon fill="#666666" points="615.31,275.205,620.5274,266.8516,616.0081,270.254,612.6057,265.7347,615.31,275.205" style="stroke:#666666;stroke-width:1;"/></g><!--link evaluation to activity--><g class="link" data-entity-1="evaluation" data-entity-2="activity" data-source-line="155" data-uid="lnk21" id="link_evaluation_activity"><path codeLine="155" d="M455.14,100.125 C292.06,100.125 216.04,134.985 132.64,275.125 C88.32,349.595 89.41,395.005 132.64,470.125 C159.56,516.895 196.73,495.915 237.64,531.125 C246.45,538.695 250.9729,542.7946 259.1229,551.6746" fill="none" id="evaluation-to-activity" style="stroke:#666666;stroke-width:1;"/><polygon fill="#666666" points="263.18,556.095,260.0414,546.7596,259.7991,552.4113,254.1475,552.169,263.18,556.095" style="stroke:#666666;stroke-width:1;"/></g><!--link evaluation to location--><g class="link" data-entity-1="evaluation" data-entity-2="location" data-source-line="156" data-uid="lnk22" id="link_evaluation_location"><path codeLine="156" d="M576.14,165.125 C846.4,165.125 769.91,498.625 701.64,760.125 C695.24,784.635 687.3551,804.5597 676.3251,827.2297" fill="none" id="evaluation-to-location" style="stroke:#666666;stroke-width:1;"/><polygon fill="#666666" points="673.7,832.625,681.2344,826.2821,675.8875,828.1289,674.0407,822.782,673.7,832.625" style="stroke:#666666;stroke-width:1;"/></g><!--link collection to activity--><g class="link" data-entity-1="collection" data-entity-2="activity" data-source-line="157" data-uid="lnk23" id="link_collection_activity"><path codeLine="157" d="M280.14,404.625 C287.19,404.625 298.9537,463.2417 309.6337,525.3817" fill="none" id="collection-to-activity" style="stroke:#666666;stroke-width:1;"/><polygon fill="#666666" points="310.65,531.295,313.0677,521.7475,309.8031,526.3673,305.1833,523.1026,310.65,531.295" style="stroke:#666666;stroke-width:1;"/></g><!--reverse link activity to token--><g class="link" data-entity-1="activity" data-entity-2="token" data-source-line="158" data-uid="lnk25" id="link_activity_token"><path codeLine="158" d="M399.91,645.625 C425.3,645.625 448,645.625 472.03,645.625" fill="none" id="activity-backto-token" style="stroke:#666666;stroke-width:1;"/><polygon fill="#666666" points="393.91,645.625,402.91,649.625,398.91,645.625,402.91,641.625,393.91,645.625" style="stroke:#666666;stroke-width:1;"/><text fill="#666666" font-family="sans-serif" font-size="10" lengthAdjust="spacing" textLength="42.7246" x="412.33" y="639.9023">tokenizes</text></g><!--link contribution to contributor--><g class="link" data-entity-1="contribution" data-entity-2="contributor" data-source-line="159" data-uid="lnk26" id="link_contribution_contributor"><path codeLine="159" d="M104.14,636.625 C6,636.625 84.8845,807.1604 120.9245,876.5504" fill="none" id="contribution-to-contributor" style="stroke:#666666;stroke-width:1;"/><polygon fill="#666666" points="123.69,881.875,123.0915,872.0443,121.3854,877.4378,115.9919,875.7317,123.69,881.875" style="stroke:#666666;stroke-width:1;"/><text fill="#666666" font-family="sans-serif" font-size="10" lengthAdjust="spacing" textLength="37.9785" x="86.79" y="800.4023">made by</text></g><!--link contributor to rights--><g class="link" data-entity-1="contributor" data-entity-2="rights" data-source-line="160" data-uid="lnk27" id="link_contributor_rights"><path codeLine="160" d="M222.75,910.545 C240.07,910.545 251.96,910.545 268.19,910.545" fill="none" id="contributor-to-rights" style="stroke:#666666;stroke-width:1;"/><polygon fill="#666666" points="274.19,910.545,265.19,906.545,269.19,910.545,265.19,914.545,274.19,910.545" style="stroke:#666666;stroke-width:1;"/><text fill="#666666" font-family="sans-serif" font-size="10" lengthAdjust="spacing" textLength="16.1084" x="240.4" y="904.8223">has</text></g><!--SRC=[Kqn9JSlCIrK8zl0FZtVpTFLn2LOeAIfDvU9IpCnBpYbDILLm3NBHAoZDpU420000]--></g></svg>