<svg xmlns="http://www.w3.org/2000/svg" xmlns:xlink="http://www.w3.org/1999/xlink" contentStyleType="text/css" data-diagram-type="CLASS" height="407px" preserveAspectRatio="none" style="width:708px;height:407px;background:#FFFFFF;" version="1.1" viewBox="0 0 708 407" width="708px" zoomAndPan="magnify"><title>Hypercert ERD</title><defs/><g><g class="title" data-source-line="1"><text fill="#000000" font-family="sans-serif" font-size="24" font-weight="bold" lengthAdjust="spacing" textLength="157.0547" x="268.7277" y="32.2656">Hypercert ERD</text></g><!--class contributor--><g class="entity" data-entity="contributor" data-source-line="39" data-uid="ent0002" id="entity_contributor"><rect fill="#FFD4A3" height="32" rx="2.5" ry="2.5" style="stroke:#181818;stroke-width:0.5;" width="100.6602" x="74.17" y="368.125"/><ellipse cx="89.17" cy="384.125" fill="#ADD1B2" rx="11" ry="11" style="stroke:#181818;stroke-width:1;"/><path d="M85.2325,390.125 L92.7481,390.125 L92.7481,388.0156 L87.7481,388.0156 L87.7481,385.4688 L91.8419,385.4688 L91.8419,383.375 L87.7481,383.375 L87.7481,381.1563 L92.5763,381.1563 L92.5763,379.0469 L85.2325,379.0469 L85.2325,390.125 Z " fill="#000000"/><text fill="#000000" font-family="sans-serif" font-size="14" lengthAdjust="spacing" textLength="68.6602" x="103.17" y="388.9102">contributor</text></g><!--class activity--><g class="entity" data-entity="activity" data-source-line="45" data-uid="ent0003" id="entity_activity"><rect fill="#B4E5D0" height="33.4375" rx="2.5" ry="2.5" style="stroke:#181818;stroke-width:0.5;" width="97.4492" x="312" y="258.125"/><ellipse cx="327" cy="274.8438" fill="#7E57C2" rx="11" ry="11" style="stroke:#181818;stroke-width:1;"/><path d="M324.1875,280.8438 L327.4063,280.8438 C330.4844,280.8438 332.5938,279.0625 332.5938,275.25 C332.5938,271.4375 330.4844,269.7656 327.25,269.7656 L324.1875,269.7656 L324.1875,280.8438 Z M326.7031,278.8281 L326.7031,271.7813 L327.1094,271.7813 C328.8438,271.7813 330.0156,272.5938 330.0156,275.25 C330.0156,277.9063 328.8438,278.8281 327.1094,278.8281 L326.7031,278.8281 Z " fill="#000000"/><text fill="#000000" font-family="sans-serif" font-size="20" font-weight="bold" lengthAdjust="spacing" textLength="65.4492" x="341" y="281.6797">activity</text></g><!--class evidence--><g class="entity" data-entity="evidence" data-source-line="61" data-uid="ent0004" id="entity_evidence"><rect fill="#F1F1F1" height="32" rx="2.5" ry="2.5" style="stroke:#181818;stroke-width:0.5;" width="87.4121" x="549" y="157.125"/><ellipse cx="564" cy="173.125" fill="#7E57C2" rx="11" ry="11" style="stroke:#181818;stroke-width:1;"/><path d="M561.1875,179.125 L564.4063,179.125 C567.4844,179.125 569.5938,177.3438 569.5938,173.5313 C569.5938,169.7188 567.4844,168.0469 564.25,168.0469 L561.1875,168.0469 L561.1875,179.125 Z M563.7031,177.1094 L563.7031,170.0625 L564.1094,170.0625 C565.8438,170.0625 567.0156,170.875 567.0156,173.5313 C567.0156,176.1875 565.8438,177.1094 564.1094,177.1094 L563.7031,177.1094 Z " fill="#000000"/><text fill="#000000" font-family="sans-serif" font-size="14" lengthAdjust="spacing" textLength="55.4121" x="578" y="177.9102">evidence</text></g><!--class measurement--><g class="entity" data-entity="measurement" data-source-line="72" data-uid="ent0005" id="entity_measurement"><rect fill="#F1F1F1" height="32" rx="2.5" ry="2.5" style="stroke:#181818;stroke-width:0.5;" width="118.4404" x="236.5" y="157.125"/><ellipse cx="251.5" cy="173.125" fill="#7E57C2" rx="11" ry="11" style="stroke:#181818;stroke-width:1;"/><path d="M248.6875,179.125 L251.9063,179.125 C254.9844,179.125 257.0938,177.3438 257.0938,173.5313 C257.0938,169.7188 254.9844,168.0469 251.75,168.0469 L248.6875,168.0469 L248.6875,179.125 Z M251.2031,177.1094 L251.2031,170.0625 L251.6094,170.0625 C253.3438,170.0625 254.5156,170.875 254.5156,173.5313 C254.5156,176.1875 253.3438,177.1094 251.6094,177.1094 L251.2031,177.1094 Z " fill="#000000"/><text fill="#000000" font-family="sans-serif" font-size="14" lengthAdjust="spacing" textLength="86.4404" x="265.5" y="177.9102">measurement</text></g><!--class evaluation--><g class="entity" data-entity="evaluation" data-source-line="86" data-uid="ent0006" id="entity_evaluation"><rect fill="#F1F1F1" height="32" rx="2.5" ry="2.5" style="stroke:#181818;stroke-width:0.5;" width="96.2578" x="432.5" y="56.125"/><ellipse cx="447.5" cy="72.125" fill="#7E57C2" rx="11" ry="11" style="stroke:#181818;stroke-width:1;"/><path d="M444.6875,78.125 L447.9063,78.125 C450.9844,78.125 453.0938,76.3438 453.0938,72.5313 C453.0938,68.7188 450.9844,67.0469 447.75,67.0469 L444.6875,67.0469 L444.6875,78.125 Z M447.2031,76.1094 L447.2031,69.0625 L447.6094,69.0625 C449.3438,69.0625 450.5156,69.875 450.5156,72.5313 C450.5156,75.1875 449.3438,76.1094 447.6094,76.1094 L447.2031,76.1094 Z " fill="#000000"/><text fill="#000000" font-family="sans-serif" font-size="14" lengthAdjust="spacing" textLength="64.2578" x="461.5" y="76.9102">evaluation</text></g><!--class contribution--><g class="entity" data-entity="contribution" data-source-line="98" data-uid="ent0007" id="entity_contribution"><rect fill="#F1F1F1" height="32" rx="2.5" ry="2.5" style="stroke:#181818;stroke-width:0.5;" width="107.0518" x="7" y="258.625"/><ellipse cx="22" cy="274.625" fill="#7E57C2" rx="11" ry="11" style="stroke:#181818;stroke-width:1;"/><path d="M19.1875,280.625 L22.4063,280.625 C25.4844,280.625 27.5938,278.8438 27.5938,275.0313 C27.5938,271.2188 25.4844,269.5469 22.25,269.5469 L19.1875,269.5469 L19.1875,280.625 Z M21.7031,278.6094 L21.7031,271.5625 L22.1094,271.5625 C23.8438,271.5625 25.0156,272.375 25.0156,275.0313 C25.0156,277.6875 23.8438,278.6094 22.1094,278.6094 L21.7031,278.6094 Z " fill="#000000"/><text fill="#000000" font-family="sans-serif" font-size="14" lengthAdjust="spacing" textLength="75.0518" x="36" y="279.4102">contribution</text></g><!--class location--><g class="entity" data-entity="location" data-source-line="109" data-uid="ent0008" id="entity_location"><rect fill="#F1F1F1" height="32" rx="2.5" ry="2.5" style="stroke:#181818;stroke-width:0.5;" width="82.0322" x="209.48" y="368.125"/><ellipse cx="224.48" cy="384.125" fill="#7E57C2" rx="11" ry="11" style="stroke:#181818;stroke-width:1;"/><path d="M221.6675,390.125 L224.8863,390.125 C227.9644,390.125 230.0738,388.3438 230.0738,384.5313 C230.0738,380.7188 227.9644,379.0469 224.73,379.0469 L221.6675,379.0469 L221.6675,390.125 Z M224.1831,388.1094 L224.1831,381.0625 L224.5894,381.0625 C226.3238,381.0625 227.4956,381.875 227.4956,384.5313 C227.4956,387.1875 226.3238,388.1094 224.5894,388.1094 L224.1831,388.1094 Z " fill="#000000"/><text fill="#000000" font-family="sans-serif" font-size="14" lengthAdjust="spacing" textLength="50.0322" x="238.48" y="388.9102">location</text></g><!--class rights--><g class="entity" data-entity="rights" data-source-line="121" data-uid="ent0009" id="entity_rights"><rect fill="#F1F1F1" height="32" rx="2.5" ry="2.5" style="stroke:#181818;stroke-width:0.5;" width="67.5264" x="326.74" y="368.125"/><ellipse cx="341.74" cy="384.125" fill="#7E57C2" rx="11" ry="11" style="stroke:#181818;stroke-width:1;"/><path d="M338.9275,390.125 L342.1463,390.125 C345.2244,390.125 347.3338,388.3438 347.3338,384.5313 C347.3338,380.7188 345.2244,379.0469 341.99,379.0469 L338.9275,379.0469 L338.9275,390.125 Z M341.4431,388.1094 L341.4431,381.0625 L341.8494,381.0625 C343.5838,381.0625 344.7556,381.875 344.7556,384.5313 C344.7556,387.1875 343.5838,388.1094 341.8494,388.1094 L341.4431,388.1094 Z " fill="#000000"/><text fill="#000000" font-family="sans-serif" font-size="14" lengthAdjust="spacing" textLength="35.5264" x="355.74" y="388.9102">rights</text></g><!--class collection--><g class="entity" data-entity="collection" data-source-line="131" data-uid="ent0010" id="entity_collection"><rect fill="#F1F1F1" height="32" rx="2.5" ry="2.5" style="stroke:#181818;stroke-width:0.5;" width="92.5732" x="405.5" y="157.125"/><ellipse cx="420.5" cy="173.125" fill="#7E57C2" rx="11" ry="11" style="stroke:#181818;stroke-width:1;"/><path d="M417.6875,179.125 L420.9063,179.125 C423.9844,179.125 426.0938,177.3438 426.0938,173.5313 C426.0938,169.7188 423.9844,168.0469 420.75,168.0469 L417.6875,168.0469 L417.6875,179.125 Z M420.2031,177.1094 L420.2031,170.0625 L420.6094,170.0625 C422.3438,170.0625 423.5156,170.875 423.5156,173.5313 C423.5156,176.1875 422.3438,177.1094 420.6094,177.1094 L420.2031,177.1094 Z " fill="#000000"/><text fill="#000000" font-family="sans-serif" font-size="14" lengthAdjust="spacing" textLength="60.5732" x="434.5" y="177.9102">collection</text></g><!--class token--><g class="entity" data-entity="token" data-source-line="141" data-uid="ent0011" id="entity_token"><rect fill="#FFB6C1" height="33.4375" rx="2.5" ry="2.5" style="stroke:#181818;stroke-width:0.5;" width="82.7617" x="495.12" y="257.905"/><ellipse cx="510.12" cy="274.6238" fill="#F1F1F1" rx="11" ry="11" style="stroke:#181818;stroke-width:1;"/><path d="M506.9013,280.6238 L509.4013,280.6238 L509.4013,276.8738 L510.8231,276.8738 C513.1669,276.8738 515.1513,275.7175 515.1513,273.1081 C515.1513,270.4206 513.2138,269.5456 510.8231,269.5456 L506.9013,269.5456 L506.9013,280.6238 Z M509.4013,274.8738 L509.4013,271.53 L510.6669,271.53 C511.995,271.53 512.7138,271.9519 512.7138,273.1081 C512.7138,274.2644 512.0419,274.8738 510.6669,274.8738 L509.4013,274.8738 Z " fill="#000000"/><text fill="#000000" font-family="sans-serif" font-size="20" font-weight="bold" lengthAdjust="spacing" textLength="50.7617" x="524.12" y="281.4597">token</text></g><!--reverse link contribution to activity--><g class="link" data-entity-1="contribution" data-entity-2="activity" data-source-line="147" data-uid="lnk13" id="link_contribution_activity"><path codeLine="147" d="M127.73,274.625 C188.51,274.625 243.29,274.625 304.07,274.625" fill="none" id="contribution-backto-activity" style="stroke:#666666;stroke-width:1;"/><polygon fill="#666666" points="121.73,274.625,130.73,278.625,126.73,274.625,130.73,270.625,121.73,274.625" style="stroke:#666666;stroke-width:1;"/></g><!--link activity to rights--><g class="link" data-entity-1="activity" data-entity-2="rights" data-source-line="148" data-uid="lnk14" id="link_activity_rights"><path codeLine="148" d="M360.5,294.845 C360.5,315.735 360.5,342.705 360.5,361.895" fill="none" id="activity-to-rights" style="stroke:#666666;stroke-width:1;"/><polygon fill="#666666" points="360.5,367.895,364.5,358.895,360.5,362.895,356.5,358.895,360.5,367.895" style="stroke:#666666;stroke-width:1;"/></g><!--link activity to location--><g class="link" data-entity-1="activity" data-entity-2="location" data-source-line="149" data-uid="lnk15" id="link_activity_location"><path codeLine="149" d="M340.58,295.095 C319.28,315.905 290.2316,344.3019 270.6416,363.4419" fill="none" id="activity-to-location" style="stroke:#666666;stroke-width:1;"/><polygon fill="#666666" points="266.35,367.635,275.5828,364.2065,269.9264,364.1408,269.9921,358.4843,266.35,367.635" style="stroke:#666666;stroke-width:1;"/></g><!--link evidence to activity--><g class="link" data-entity-1="evidence" data-entity-2="activity" data-source-line="150" data-uid="lnk16" id="link_evidence_activity"><path codeLine="150" d="M548.32,193.075 C507.43,210.615 452.4345,234.2005 411.2245,251.8705" fill="none" id="evidence-to-activity" style="stroke:#666666;stroke-width:1;"/><polygon fill="#666666" points="405.71,254.235,415.558,254.3646,410.3054,252.2646,412.4054,247.012,405.71,254.235" style="stroke:#666666;stroke-width:1;"/></g><!--link measurement to activity--><g class="link" data-entity-1="measurement" data-entity-2="activity" data-source-line="151" data-uid="lnk17" id="link_measurement_activity"><path codeLine="151" d="M307.73,192.845 C319.2,210.405 333.0076,231.5424 344.6076,249.2924" fill="none" id="measurement-to-activity" style="stroke:#666666;stroke-width:1;"/><polygon fill="#666666" points="347.89,254.315,346.3148,244.5929,345.1547,250.1295,339.6181,248.9694,347.89,254.315" style="stroke:#666666;stroke-width:1;"/></g><!--link measurement to location--><g class="link" data-entity-1="measurement" data-entity-2="location" data-source-line="152" data-uid="lnk18" id="link_measurement_location"><path codeLine="152" d="M291.43,193.045 C282.6,234.035 263.1124,324.5393 255.0524,361.9893" fill="none" id="measurement-to-location" style="stroke:#666666;stroke-width:1;"/><polygon fill="#666666" points="253.79,367.855,259.5941,359.8981,254.842,362.9669,251.7732,358.2149,253.79,367.855" style="stroke:#666666;stroke-width:1;"/></g><!--link evaluation to evidence--><g class="link" data-entity-1="evaluation" data-entity-2="evidence" data-source-line="153" data-uid="lnk19" id="link_evaluation_evidence"><path codeLine="153" d="M501.83,91.975 C521.76,109.595 546.8556,131.77 566.7556,149.37" fill="none" id="evaluation-to-evidence" style="stroke:#666666;stroke-width:1;"/><polygon fill="#666666" points="571.25,153.345,567.1584,144.3863,567.5047,150.0325,561.8584,150.3788,571.25,153.345" style="stroke:#666666;stroke-width:1;"/></g><!--link evaluation to measurement--><g class="link" data-entity-1="evaluation" data-entity-2="measurement" data-source-line="154" data-uid="lnk20" id="link_evaluation_measurement"><path codeLine="154" d="M445.27,91.975 C412.45,109.535 369.0801,132.754 336.2101,150.344" fill="none" id="evaluation-to-measurement" style="stroke:#666666;stroke-width:1;"/><polygon fill="#666666" points="330.92,153.175,340.7425,152.4553,335.3285,150.8159,336.9679,145.4018,330.92,153.175" style="stroke:#666666;stroke-width:1;"/></g><!--link evaluation to activity--><g class="link" data-entity-1="evaluation" data-entity-2="activity" data-source-line="155" data-uid="lnk21" id="link_evaluation_activity"><path codeLine="155" d="M536.32,86.075 C603.19,104.245 701.51,141.015 661.5,193.125 C646.47,212.705 505.7765,244.064 422.8465,261.154" fill="none" id="evaluation-to-activity" style="stroke:#666666;stroke-width:1;"/><polygon fill="#666666" points="416.97,262.365,426.5921,264.4662,421.8671,261.3558,424.9774,256.6308,416.97,262.365" style="stroke:#666666;stroke-width:1;"/></g><!--link evaluation to location--><g class="link" data-entity-1="evaluation" data-entity-2="location" data-source-line="156" data-uid="lnk22" id="link_evaluation_location"><path codeLine="156" d="M424.58,82.085 C353.67,94.675 237.37,119.835 210.5,153.125 C158.73,217.265 162.88,263.325 197.5,338.125 C203.08,350.175 208.8072,356.6328 219.0472,364.1228" fill="none" id="evaluation-to-location" style="stroke:#666666;stroke-width:1;"/><polygon fill="#666666" points="223.89,367.665,218.9873,359.1231,219.8543,364.7131,214.2643,365.5802,223.89,367.665" style="stroke:#666666;stroke-width:1;"/></g><!--link collection to activity--><g class="link" data-entity-1="collection" data-entity-2="activity" data-source-line="157" data-uid="lnk23" id="link_collection_activity"><path codeLine="157" d="M434.38,192.845 C418.32,210.405 398.4502,232.1382 382.2102,249.8882" fill="none" id="collection-to-activity" style="stroke:#666666;stroke-width:1;"/><polygon fill="#666666" points="378.16,254.315,387.1864,250.375,381.5351,250.626,381.2841,244.9748,378.16,254.315" style="stroke:#666666;stroke-width:1;"/></g><!--reverse link activity to token--><g class="link" data-entity-1="activity" data-entity-2="token" data-source-line="158" data-uid="lnk25" id="link_activity_token"><path codeLine="158" d="M422.67,274.625 C448.02,274.625 471.45,274.625 494.79,274.625" fill="none" id="activity-backto-token" style="stroke:#666666;stroke-width:1;"/><polygon fill="#666666" points="416.67,274.625,425.67,278.625,421.67,274.625,425.67,270.625,416.67,274.625" style="stroke:#666666;stroke-width:1;"/><text fill="#666666" font-family="sans-serif" font-size="10" lengthAdjust="spacing" textLength="42.7246" x="435.06" y="268.9023">tokenizes</text></g><!--link contribution to contributor--><g class="link" data-entity-1="contribution" data-entity-2="contributor" data-source-line="159" data-uid="lnk26" id="link_contribution_contributor"><path codeLine="159" d="M71.65,294.355 C84.04,315.165 100.7518,343.2288 112.2718,362.5888" fill="none" id="contribution-to-contributor" style="stroke:#666666;stroke-width:1;"/><polygon fill="#666666" points="115.34,367.745,114.1752,357.9653,112.7832,363.4482,107.3003,362.0561,115.34,367.745" style="stroke:#666666;stroke-width:1;"/><text fill="#666666" font-family="sans-serif" font-size="10" lengthAdjust="spacing" textLength="37.9785" x="97.33" y="335.4023">made by</text></g><!--link contributor to rights--><g class="link" data-entity-1="contributor" data-entity-2="rights" data-source-line="160" data-uid="lnk27" id="link_contributor_rights"><path codeLine="160" d="M143.69,367.685 C159.02,355.705 181.65,340.455 204.5,333.875 C252.08,320.175 301.9978,345.0785 332.3278,364.5085" fill="none" id="contributor-to-rights" style="stroke:#666666;stroke-width:1;"/><polygon fill="#666666" points="337.38,367.745,331.9594,359.522,333.1698,365.0479,327.644,366.2583,337.38,367.745" style="stroke:#666666;stroke-width:1;"/><text fill="#666666" font-family="sans-serif" font-size="10" lengthAdjust="spacing" textLength="16.1084" x="205.5" y="335.4023">has</text></g><!--SRC=[dLRDRzem5B_xht3fOUk1jTsw7X05KG9gfMvCiBM7QQfCyY1UdHZP3XMR-h_lnKcCqz8IZGFo-_wzJp3S2A2jgyqAL0ZAqD4qQ17oZWvbkk3BJ373PKhNJ74s5w390L-a4Ipex6foTp- -7jq4CtA039w2pwCB9ZIG0qWZlY2v5NtlYoykQCkgj8v8p2EWaApCXYuuY4XNPfuW0HDBb5YMDg106iIiYGi-7TrUZ-xkXvERoPGUZiVZmJ1mmi5qEd6oS_iXfAlDHa2FH3BC4aWD_KieVemjIV7EFsEPcXd_0_JZMPsNMzEv595bFv4d4WgcTS3PKh6azC2Kae-Ujnk4CvH2AXzJpU_RKelazAGCcNz_44mjuH9nU65YO14eZr7FvEGblvxDrdsUL_UuB1N1Cd5iHuWMYiypWqYnri7Pu5CPQsUdZShoHkVou3gWQ9Io18vN6h98ffkai2oQ_aH8n0opfQGiD7oT1-nsNPQz7ZsyF1jz3auQXhGDjIyTIsK2qA7YgtokBJFQqdtBu0bRGl5ybEfX5ifLIMh3q9wPmXlYTMzN4FIYV_ugr8KCsTQjuilOwE8TAa3BQ61UpHpMEEbf20rph0hLTsYmKtkox-zEVp-s19ZE57WxqnIU9KfpXNKgQInTQ9zh9ZBmbV8ON-pkVyTrtotvCRqk-b6M3EdT7MXITGHGdBncYUbi_Xj2KxwJXAbDYSKwaYx92jnkP5vERdhse_M7hY5U9GNqwnExnVXY5DwOzxtWgWGR0XEhMvo8QYUrqhKgkUPN34laH-I_XxXOnwPbiyfVCPv7Eb05-VokC8EXugJQmoRj509dgNdDzgrsADUWliNIo98MZ2TLir_3irAeZr2eaG-GFZ-yu_7b-V2q8RxtCcs7CUCfbQdO73qBLDs4JgTsF6bRj7krqVOqowQrKQDuUZ8tSBdKpKcrTvsE-ot9vUuWUPlNIEMrADNTw7JSvSurAgAcuM-xrV8ODSNokjJX-0gxqMm72MjhUqxRaU-YQAqjj4kvKpGS_nveubVVQmzU2Xl8__Nlq0J_QT3vXlZSjd8TGesOQV8F]--></g></svg>