<svg xmlns="http://www.w3.org/2000/svg" xmlns:xlink="http://www.w3.org/1999/xlink" contentStyleType="text/css" data-diagram-type="CLASS" height="529px" preserveAspectRatio="none" style="width:815px;height:529px;background:#FFFFFF;" version="1.1" viewBox="0 0 815 529" width="815px" zoomAndPan="magnify"><title>Hypercert ERD</title><defs/><g><g class="title" data-source-line="1"><text fill="#000000" font-family="sans-serif" font-size="24" font-weight="bold" lengthAdjust="spacing" textLength="157.0547" x="322.2331" y="32.2656">Hypercert ERD</text></g><!--class contributors--><g class="entity" data-entity="contributors" data-source-line="30" data-uid="ent0002" id="entity_contributors"><rect fill="#FFD4A3" height="32" rx="2.5" ry="2.5" style="stroke:#181818;stroke-width:0.5;" width="107.8857" x="192.47" y="161.125"/><ellipse cx="207.47" cy="177.125" fill="#ADD1B2" rx="11" ry="11" style="stroke:#181818;stroke-width:1;"/><path d="M203.5325,183.125 L211.0481,183.125 L211.0481,181.0156 L206.0481,181.0156 L206.0481,178.4688 L210.1419,178.4688 L210.1419,176.375 L206.0481,176.375 L206.0481,174.1563 L210.8763,174.1563 L210.8763,172.0469 L203.5325,172.0469 L203.5325,183.125 Z " fill="#000000"/><text fill="#000000" font-family="sans-serif" font-size="14" lengthAdjust="spacing" textLength="75.8857" x="221.47" y="181.9102">contributors</text></g><!--class claim--><g class="entity" data-entity="claim" data-source-line="31" data-uid="ent0003" id="entity_claim"><rect fill="#B4E5D0" height="33.4375" rx="2.5" ry="2.5" style="stroke:#181818;stroke-width:0.5;" width="147.8594" x="211.48" y="383.115"/><ellipse cx="226.48" cy="399.8338" fill="#7E57C2" rx="11" ry="11" style="stroke:#181818;stroke-width:1;"/><path d="M223.6675,405.8338 L226.8863,405.8338 C229.9644,405.8338 232.0738,404.0525 232.0738,400.24 C232.0738,396.4275 229.9644,394.7556 226.73,394.7556 L223.6675,394.7556 L223.6675,405.8338 Z M226.1831,403.8181 L226.1831,396.7713 L226.5894,396.7713 C228.3238,396.7713 229.4956,397.5838 229.4956,400.24 C229.4956,402.8963 228.3238,403.8181 226.5894,403.8181 L226.1831,403.8181 Z " fill="#000000"/><text fill="#000000" font-family="sans-serif" font-size="20" font-weight="bold" lengthAdjust="spacing" textLength="115.8594" x="240.48" y="406.6697">impact claim</text></g><!--class evidence--><g class="entity" data-entity="evidence" data-source-line="32" data-uid="ent0004" id="entity_evidence"><rect fill="#F1F1F1" height="32" rx="2.5" ry="2.5" style="stroke:#181818;stroke-width:0.5;" width="87.4121" x="378.71" y="266.115"/><ellipse cx="393.71" cy="282.115" fill="#7E57C2" rx="11" ry="11" style="stroke:#181818;stroke-width:1;"/><path d="M390.8975,288.115 L394.1163,288.115 C397.1944,288.115 399.3038,286.3338 399.3038,282.5213 C399.3038,278.7088 397.1944,277.0369 393.96,277.0369 L390.8975,277.0369 L390.8975,288.115 Z M393.4131,286.0994 L393.4131,279.0525 L393.8194,279.0525 C395.5538,279.0525 396.7256,279.865 396.7256,282.5213 C396.7256,285.1775 395.5538,286.0994 393.8194,286.0994 L393.4131,286.0994 Z " fill="#000000"/><text fill="#000000" font-family="sans-serif" font-size="14" lengthAdjust="spacing" textLength="55.4121" x="407.71" y="286.9002">evidence</text></g><!--class measurements--><g class="entity" data-entity="measurements" data-source-line="33" data-uid="ent0005" id="entity_measurements"><rect fill="#F1F1F1" height="32" rx="2.5" ry="2.5" style="stroke:#181818;stroke-width:0.5;" width="125.666" x="514.58" y="266.115"/><ellipse cx="529.58" cy="282.115" fill="#7E57C2" rx="11" ry="11" style="stroke:#181818;stroke-width:1;"/><path d="M526.7675,288.115 L529.9862,288.115 C533.0644,288.115 535.1737,286.3338 535.1737,282.5213 C535.1737,278.7088 533.0644,277.0369 529.83,277.0369 L526.7675,277.0369 L526.7675,288.115 Z M529.2831,286.0994 L529.2831,279.0525 L529.6894,279.0525 C531.4237,279.0525 532.5956,279.865 532.5956,282.5213 C532.5956,285.1775 531.4237,286.0994 529.6894,286.0994 L529.2831,286.0994 Z " fill="#000000"/><text fill="#000000" font-family="sans-serif" font-size="14" lengthAdjust="spacing" textLength="93.666" x="543.58" y="286.9002">measurements</text></g><!--class evaluations--><g class="entity" data-entity="evaluations" data-source-line="34" data-uid="ent0006" id="entity_evaluations"><rect fill="#F1F1F1" height="32" rx="2.5" ry="2.5" style="stroke:#181818;stroke-width:0.5;" width="103.4834" x="507.67" y="161.125"/><ellipse cx="522.67" cy="177.125" fill="#7E57C2" rx="11" ry="11" style="stroke:#181818;stroke-width:1;"/><path d="M519.8575,183.125 L523.0763,183.125 C526.1544,183.125 528.2638,181.3438 528.2638,177.5313 C528.2638,173.7188 526.1544,172.0469 522.92,172.0469 L519.8575,172.0469 L519.8575,183.125 Z M522.3731,181.1094 L522.3731,174.0625 L522.7794,174.0625 C524.5138,174.0625 525.6856,174.875 525.6856,177.5313 C525.6856,180.1875 524.5138,181.1094 522.7794,181.1094 L522.3731,181.1094 Z " fill="#000000"/><text fill="#000000" font-family="sans-serif" font-size="14" lengthAdjust="spacing" textLength="71.4834" x="536.67" y="181.9102">evaluations</text></g><!--class contributions--><g class="entity" data-entity="contributions" data-source-line="35" data-uid="ent0007" id="entity_contributions"><rect fill="#F1F1F1" height="32" rx="2.5" ry="2.5" style="stroke:#181818;stroke-width:0.5;" width="114.2773" x="63.27" y="266.115"/><ellipse cx="78.27" cy="282.115" fill="#7E57C2" rx="11" ry="11" style="stroke:#181818;stroke-width:1;"/><path d="M75.4575,288.115 L78.6763,288.115 C81.7544,288.115 83.8638,286.3338 83.8638,282.5213 C83.8638,278.7088 81.7544,277.0369 78.52,277.0369 L75.4575,277.0369 L75.4575,288.115 Z M77.9731,286.0994 L77.9731,279.0525 L78.3794,279.0525 C80.1138,279.0525 81.2856,279.865 81.2856,282.5213 C81.2856,285.1775 80.1138,286.0994 78.3794,286.0994 L77.9731,286.0994 Z " fill="#000000"/><text fill="#000000" font-family="sans-serif" font-size="14" lengthAdjust="spacing" textLength="82.2773" x="92.27" y="286.9002">contributions</text></g><!--class location--><g class="entity" data-entity="location" data-source-line="36" data-uid="ent0008" id="entity_location"><rect fill="#F1F1F1" height="32" rx="2.5" ry="2.5" style="stroke:#181818;stroke-width:0.5;" width="82.0322" x="495.4" y="383.835"/><ellipse cx="510.4" cy="399.835" fill="#7E57C2" rx="11" ry="11" style="stroke:#181818;stroke-width:1;"/><path d="M507.5875,405.835 L510.8063,405.835 C513.8844,405.835 515.9938,404.0538 515.9938,400.2413 C515.9938,396.4288 513.8844,394.7569 510.65,394.7569 L507.5875,394.7569 L507.5875,405.835 Z M510.1031,403.8194 L510.1031,396.7725 L510.5094,396.7725 C512.2438,396.7725 513.4156,397.585 513.4156,400.2413 C513.4156,402.8975 512.2438,403.8194 510.5094,403.8194 L510.1031,403.8194 Z " fill="#000000"/><text fill="#000000" font-family="sans-serif" font-size="14" lengthAdjust="spacing" textLength="50.0322" x="524.4" y="404.6202">location</text></g><!--class rights--><g class="entity" data-entity="rights" data-source-line="37" data-uid="ent0009" id="entity_rights"><rect fill="#F1F1F1" height="32" rx="2.5" ry="2.5" style="stroke:#181818;stroke-width:0.5;" width="67.5264" x="212.65" y="266.115"/><ellipse cx="227.65" cy="282.115" fill="#7E57C2" rx="11" ry="11" style="stroke:#181818;stroke-width:1;"/><path d="M224.8375,288.115 L228.0563,288.115 C231.1344,288.115 233.2438,286.3338 233.2438,282.5213 C233.2438,278.7088 231.1344,277.0369 227.9,277.0369 L224.8375,277.0369 L224.8375,288.115 Z M227.3531,286.0994 L227.3531,279.0525 L227.7594,279.0525 C229.4938,279.0525 230.6656,279.865 230.6656,282.5213 C230.6656,285.1775 229.4938,286.0994 227.7594,286.0994 L227.3531,286.0994 Z " fill="#000000"/><text fill="#000000" font-family="sans-serif" font-size="14" lengthAdjust="spacing" textLength="35.5264" x="241.65" y="286.9002">rights</text></g><!--class review_evidence--><g class="entity" data-entity="review_evidence" data-source-line="38" data-uid="ent0010" id="entity_review_evidence"><rect fill="#FFFACD" height="32" rx="2.5" ry="2.5" style="stroke:#181818;stroke-width:0.5;" width="131.1826" x="341.82" y="161.125"/><ellipse cx="356.82" cy="177.125" fill="#7E57C2" rx="11" ry="11" style="stroke:#181818;stroke-width:1;"/><path d="M354.0075,183.125 L357.2263,183.125 C360.3044,183.125 362.4138,181.3438 362.4138,177.5313 C362.4138,173.7188 360.3044,172.0469 357.07,172.0469 L354.0075,172.0469 L354.0075,183.125 Z M356.5231,181.1094 L356.5231,174.0625 L356.9294,174.0625 C358.6638,174.0625 359.8356,174.875 359.8356,177.5313 C359.8356,180.1875 358.6638,181.1094 356.9294,181.1094 L356.5231,181.1094 Z " fill="#000000"/><text fill="#000000" font-family="sans-serif" font-size="14" lengthAdjust="spacing" textLength="99.1826" x="370.82" y="181.9102">evidence review</text></g><!--class review_measurement--><g class="entity" data-entity="review_measurement" data-source-line="39" data-uid="ent0011" id="entity_review_measurement"><rect fill="#FFFACD" height="32" rx="2.5" ry="2.5" style="stroke:#181818;stroke-width:0.5;" width="162.2109" x="646.31" y="161.125"/><ellipse cx="661.31" cy="177.125" fill="#7E57C2" rx="11" ry="11" style="stroke:#181818;stroke-width:1;"/><path d="M658.4975,183.125 L661.7163,183.125 C664.7944,183.125 666.9038,181.3438 666.9038,177.5313 C666.9038,173.7188 664.7944,172.0469 661.56,172.0469 L658.4975,172.0469 L658.4975,183.125 Z M661.0131,181.1094 L661.0131,174.0625 L661.4194,174.0625 C663.1538,174.0625 664.3256,174.875 664.3256,177.5313 C664.3256,180.1875 663.1538,181.1094 661.4194,181.1094 L661.0131,181.1094 Z " fill="#000000"/><text fill="#000000" font-family="sans-serif" font-size="14" lengthAdjust="spacing" textLength="130.2109" x="675.31" y="181.9102">measurement review</text></g><!--class review_evaluation--><g class="entity" data-entity="review_evaluation" data-source-line="40" data-uid="ent0012" id="entity_review_evaluation"><rect fill="#FFFACD" height="32" rx="2.5" ry="2.5" style="stroke:#181818;stroke-width:0.5;" width="140.0283" x="489.4" y="56.125"/><ellipse cx="504.4" cy="72.125" fill="#7E57C2" rx="11" ry="11" style="stroke:#181818;stroke-width:1;"/><path d="M501.5875,78.125 L504.8063,78.125 C507.8844,78.125 509.9938,76.3438 509.9938,72.5313 C509.9938,68.7188 507.8844,67.0469 504.65,67.0469 L501.5875,67.0469 L501.5875,78.125 Z M504.1031,76.1094 L504.1031,69.0625 L504.5094,69.0625 C506.2438,69.0625 507.4156,69.875 507.4156,72.5313 C507.4156,75.1875 506.2438,76.1094 504.5094,76.1094 L504.1031,76.1094 Z " fill="#000000"/><text fill="#000000" font-family="sans-serif" font-size="14" lengthAdjust="spacing" textLength="108.0283" x="518.4" y="76.9102">evaluation review</text></g><!--class review_contribution--><g class="entity" data-entity="review_contribution" data-source-line="41" data-uid="ent0013" id="entity_review_contribution"><rect fill="#FFFACD" height="32" rx="2.5" ry="2.5" style="stroke:#181818;stroke-width:0.5;" width="150.8223" x="7" y="161.125"/><ellipse cx="22" cy="177.125" fill="#7E57C2" rx="11" ry="11" style="stroke:#181818;stroke-width:1;"/><path d="M19.1875,183.125 L22.4063,183.125 C25.4844,183.125 27.5938,181.3438 27.5938,177.5313 C27.5938,173.7188 25.4844,172.0469 22.25,172.0469 L19.1875,172.0469 L19.1875,183.125 Z M21.7031,181.1094 L21.7031,174.0625 L22.1094,174.0625 C23.8438,174.0625 25.0156,174.875 25.0156,177.5313 C25.0156,180.1875 23.8438,181.1094 22.1094,181.1094 L21.7031,181.1094 Z " fill="#000000"/><text fill="#000000" font-family="sans-serif" font-size="14" lengthAdjust="spacing" textLength="118.8223" x="36" y="181.9102">contribution review</text></g><!--class token--><g class="entity" data-entity="token" data-source-line="42" data-uid="ent0014" id="entity_token"><rect fill="#FFB6C1" height="33.4375" rx="2.5" ry="2.5" style="stroke:#181818;stroke-width:0.5;" width="82.7617" x="244.03" y="489.555"/><ellipse cx="259.03" cy="506.2738" fill="#F1F1F1" rx="11" ry="11" style="stroke:#181818;stroke-width:1;"/><path d="M255.8112,512.2738 L258.3113,512.2738 L258.3113,508.5238 L259.7331,508.5238 C262.0769,508.5238 264.0613,507.3675 264.0613,504.7581 C264.0613,502.0706 262.1238,501.1956 259.7331,501.1956 L255.8112,501.1956 L255.8112,512.2738 Z M258.3113,506.5238 L258.3113,503.18 L259.5769,503.18 C260.905,503.18 261.6238,503.6019 261.6238,504.7581 C261.6238,505.9144 260.9519,506.5238 259.5769,506.5238 L258.3113,506.5238 Z " fill="#000000"/><text fill="#000000" font-family="sans-serif" font-size="20" font-weight="bold" lengthAdjust="spacing" textLength="50.7617" x="273.03" y="513.1097">token</text></g><!--link evidence to claim--><g class="link" data-entity-1="evidence" data-entity-2="claim" data-source-line="44" data-uid="lnk15" id="link_evidence_claim"><path codeLine="44" d="M378.33,296.105 C359.73,303.255 338.85,313.675 323.41,328.115 C307.13,343.355 298.4237,361.5448 292.6337,377.2648" fill="none" id="evidence-to-claim" style="stroke:#666666;stroke-width:1;"/><polygon fill="#666666" points="290.56,382.895,297.4241,375.8321,292.2881,378.2031,289.9171,373.0671,290.56,382.895" style="stroke:#666666;stroke-width:1;"/><text fill="#666666" font-family="sans-serif" font-size="10" lengthAdjust="spacing" textLength="39.4287" x="324.41" y="344.3923">supports</text></g><!--link measurements to claim--><g class="link" data-entity-1="measurements" data-entity-2="claim" data-source-line="45" data-uid="lnk16" id="link_measurements_claim"><path codeLine="45" d="M514.38,297.085 C483.94,304.715 447.2,315.255 415.41,328.115 C410.2,330.225 356.6264,359.6119 319.9064,379.8219" fill="none" id="measurements-to-claim" style="stroke:#666666;stroke-width:1;"/><polygon fill="#666666" points="314.65,382.715,324.4634,381.8797,319.0304,380.3041,320.606,374.8711,314.65,382.715" style="stroke:#666666;stroke-width:1;"/><text fill="#666666" font-family="sans-serif" font-size="10" lengthAdjust="spacing" textLength="44.2334" x="416.41" y="344.3923">quantifies</text></g><!--link measurements to location--><g class="link" data-entity-1="measurements" data-entity-2="location" data-source-line="46" data-uid="lnk17" id="link_measurements_location"><path codeLine="46" d="M572.05,298.245 C564.19,320.425 551.6341,355.8696 543.7741,378.0496" fill="none" id="measurements-to-location" style="stroke:#666666;stroke-width:1;"/><polygon fill="#666666" points="541.77,383.705,548.5464,376.558,543.4401,378.9922,541.0059,373.8858,541.77,383.705" style="stroke:#666666;stroke-width:1;"/><text fill="#666666" font-family="sans-serif" font-size="10" lengthAdjust="spacing" textLength="45.8496" x="561.58" y="344.3923">located by</text></g><!--link evidence to location--><g class="link" data-entity-1="evidence" data-entity-2="location" data-source-line="47" data-uid="lnk18" id="link_evidence_location"><path codeLine="47" d="M437.31,298.245 C459.16,320.425 495.4393,357.2507 517.2893,379.4307" fill="none" id="evidence-to-location" style="stroke:#666666;stroke-width:1;"/><polygon fill="#666666" points="521.5,383.705,518.0335,374.4864,517.9911,380.1431,512.3344,380.1007,521.5,383.705" style="stroke:#666666;stroke-width:1;"/><text fill="#666666" font-family="sans-serif" font-size="10" lengthAdjust="spacing" textLength="45.8496" x="490.62" y="344.3923">located by</text></g><!--link evaluations to evidence--><g class="link" data-entity-1="evaluations" data-entity-2="evidence" data-source-line="48" data-uid="lnk19" id="link_evaluations_evidence"><path codeLine="48" d="M538.9,193.545 C512.92,213.065 473.2358,242.9094 447.4058,262.3294" fill="none" id="evaluations-to-evidence" style="stroke:#666666;stroke-width:1;"/><polygon fill="#666666" points="442.61,265.935,452.2074,263.7237,446.6065,262.9303,447.3999,257.3294,442.61,265.935" style="stroke:#666666;stroke-width:1;"/><text fill="#666666" font-family="sans-serif" font-size="10" lengthAdjust="spacing" textLength="42.7051" x="500.11" y="233.3923">evaluates</text></g><!--link evaluations to measurements--><g class="link" data-entity-1="evaluations" data-entity-2="measurements" data-source-line="49" data-uid="lnk20" id="link_evaluations_measurements"><path codeLine="49" d="M562.07,193.315 C565.47,212.795 570.3094,240.4442 573.7094,259.9442" fill="none" id="evaluations-to-measurements" style="stroke:#666666;stroke-width:1;"/><polygon fill="#666666" points="574.74,265.855,577.1346,256.3017,573.8812,260.9293,569.2535,257.6758,574.74,265.855" style="stroke:#666666;stroke-width:1;"/><text fill="#666666" font-family="sans-serif" font-size="10" lengthAdjust="spacing" textLength="42.7051" x="570.49" y="233.3923">evaluates</text></g><!--link rights to claim--><g class="link" data-entity-1="rights" data-entity-2="claim" data-source-line="50" data-uid="lnk21" id="link_rights_claim"><path codeLine="50" d="M241.54,298.465 C237.76,313.065 234.26,335.375 241.41,353.115 C246.11,364.765 250.8704,371.1022 259.6804,378.9922" fill="none" id="rights-to-claim" style="stroke:#666666;stroke-width:1;"/><polygon fill="#666666" points="264.15,382.995,260.1142,374.011,260.4253,379.6593,254.7771,379.9705,264.15,382.995" style="stroke:#666666;stroke-width:1;"/><text fill="#666666" font-family="sans-serif" font-size="10" lengthAdjust="spacing" textLength="32.8369" x="246.2039" y="338.3923">defines</text><text fill="#666666" font-family="sans-serif" font-size="10" lengthAdjust="spacing" textLength="40.4248" x="242.41" y="350.1111">rights for</text></g><!--reverse link claim to token--><g class="link" data-entity-1="claim" data-entity-2="token" data-source-line="51" data-uid="lnk22" id="link_claim_token"><path codeLine="51" d="M285.41,422.705 C285.41,442.335 285.41,469.565 285.41,489.265" fill="none" id="claim-backto-token" style="stroke:#666666;stroke-width:1;"/><polygon fill="#666666" points="285.41,416.705,281.41,425.705,285.41,421.705,289.41,425.705,285.41,416.705" style="stroke:#666666;stroke-width:1;"/><text fill="#666666" font-family="sans-serif" font-size="10" lengthAdjust="spacing" textLength="42.7246" x="286.41" y="456.8323">tokenizes</text></g><!--link contributors to contributions--><g class="link" data-entity-1="contributors" data-entity-2="contributions" data-source-line="52" data-uid="lnk23" id="link_contributors_contributions"><path codeLine="52" d="M227.55,193.545 C203.66,213.065 167.3957,242.7179 143.6357,262.1379" fill="none" id="contributors-to-contributions" style="stroke:#666666;stroke-width:1;"/><polygon fill="#666666" points="138.99,265.935,148.4899,263.3365,142.8614,262.7708,143.4271,257.1423,138.99,265.935" style="stroke:#666666;stroke-width:1;"/><text fill="#666666" font-family="sans-serif" font-size="10" lengthAdjust="spacing" textLength="24.5801" x="191.96" y="233.3923">make</text></g><!--link contributors to rights--><g class="link" data-entity-1="contributors" data-entity-2="rights" data-source-line="53" data-uid="lnk24" id="link_contributors_rights"><path codeLine="53" d="M246.41,193.315 C246.41,212.795 246.41,240.355 246.41,259.855" fill="none" id="contributors-to-rights" style="stroke:#666666;stroke-width:1;"/><polygon fill="#666666" points="246.41,265.855,250.41,256.855,246.41,260.855,242.41,256.855,246.41,265.855" style="stroke:#666666;stroke-width:1;"/><text fill="#666666" font-family="sans-serif" font-size="10" lengthAdjust="spacing" textLength="21.0938" x="247.41" y="233.3923">have</text></g><!--link contributions to claim--><g class="link" data-entity-1="contributions" data-entity-2="claim" data-source-line="54" data-uid="lnk25" id="link_contributions_claim"><path codeLine="54" d="M127.04,298.525 C134.52,314.235 148.07,338.345 166.41,353.115 C182.53,366.105 197.0999,373.6483 216.2799,380.6083" fill="none" id="contributions-to-claim" style="stroke:#666666;stroke-width:1;"/><polygon fill="#666666" points="221.92,382.655,214.8243,375.8249,217.2199,380.9494,212.0953,383.3451,221.92,382.655" style="stroke:#666666;stroke-width:1;"/><text fill="#666666" font-family="sans-serif" font-size="10" lengthAdjust="spacing" textLength="61.8701" x="167.41" y="344.3923">contributes to</text></g><!--link review_evidence to evidence--><g class="link" data-entity-1="review_evidence" data-entity-2="evidence" data-source-line="55" data-uid="lnk26" id="link_review_evidence_evidence"><path codeLine="55" d="M405.1,193.515 C403.76,205.275 402.81,221.845 405.41,236.115 C407.27,246.305 408.9385,251.6779 412.6185,260.1879" fill="none" id="review_evidence-to-evidence" style="stroke:#666666;stroke-width:1;"/><polygon fill="#666666" points="415,265.695,415.0992,255.8466,413.0154,261.1057,407.7564,259.0219,415,265.695" style="stroke:#666666;stroke-width:1;"/><text fill="#666666" font-family="sans-serif" font-size="10" lengthAdjust="spacing" textLength="42.7051" x="406.41" y="233.3923">evaluates</text></g><!--link review_measurement to measurements--><g class="link" data-entity-1="review_measurement" data-entity-2="measurements" data-source-line="56" data-uid="lnk27" id="link_review_measurement_measurements"><path codeLine="56" d="M704.95,193.545 C676.51,213.065 632.7561,243.1185 604.4761,262.5385" fill="none" id="review_measurement-to-measurements" style="stroke:#666666;stroke-width:1;"/><polygon fill="#666666" points="599.53,265.935,609.2135,264.1376,603.6517,263.1046,604.6848,257.5429,599.53,265.935" style="stroke:#666666;stroke-width:1;"/><text fill="#666666" font-family="sans-serif" font-size="10" lengthAdjust="spacing" textLength="42.7051" x="662.39" y="233.3923">evaluates</text></g><!--link review_evaluation to evaluations--><g class="link" data-entity-1="review_evaluation" data-entity-2="evaluations" data-source-line="57" data-uid="lnk28" id="link_review_evaluation_evaluations"><path codeLine="57" d="M559.41,88.315 C559.41,107.795 559.41,135.355 559.41,154.855" fill="none" id="review_evaluation-to-evaluations" style="stroke:#666666;stroke-width:1;"/><polygon fill="#666666" points="559.41,160.855,563.41,151.855,559.41,155.855,555.41,151.855,559.41,160.855" style="stroke:#666666;stroke-width:1;"/><text fill="#666666" font-family="sans-serif" font-size="10" lengthAdjust="spacing" textLength="42.7051" x="560.41" y="128.4023">evaluates</text></g><!--link review_contribution to contributions--><g class="link" data-entity-1="review_contribution" data-entity-2="contributions" data-source-line="58" data-uid="lnk29" id="link_review_contribution_contributions"><path codeLine="58" d="M81.13,193.395 C80.67,205.395 81.25,222.315 86.41,236.115 C90.53,247.125 94.3291,253.172 101.3791,261.302" fill="none" id="review_contribution-to-contributions" style="stroke:#666666;stroke-width:1;"/><polygon fill="#666666" points="105.31,265.835,102.4357,256.4149,102.0343,262.0575,96.3917,261.656,105.31,265.835" style="stroke:#666666;stroke-width:1;"/><text fill="#666666" font-family="sans-serif" font-size="10" lengthAdjust="spacing" textLength="42.7051" x="87.41" y="233.3923">evaluates</text></g><!--SRC=[XLDHRzem47xthxZHPpQwiJuWX0I4g9Cg8MNI-ZAfCia1LfqujPrMREf_d-CangPkvmUut7tVtUUxisQQ8unkJpNA7AM6JPQC23co0W7BMfzWpv0NolUKg8zYS2cD4eKsV4N8fmBth4B8Dhz-REuVrjkxRGPNQPekruaBBhDiws8tzX0oL_h4SK4AaJSbLXh-4Z17MtcTtPvKLFed-uFmTHhwMZRi12-i-vMyafnJfH963vAMVGOgfNZnijqPEMl1XVGr1Na_ZbebrvE-PFlxcLDvm9NH4HKz-P_e-PU-3yJqW9bUvmOdsQxHGggsaybq-OqKL5DxFHYnigQv1lF5oX5GrLamdpiXYmLShQQRxyd4u-6pcLsLe-SgaQf6Ojjy5I0fRwXcelAzJjQ5dulSOZsNP8TZa74q50TfB7oniZlpmOM6fV5edi08quz6oEThHAkwO8JgtpL23i83lPP2YrnmqE8HgyjnfEdgPdrjPZpSTZnUz8ERWMhgMaZJCNyW0UAfeMOvpBkCO8O169WriO3TAIpq7iJDsQ8SPJQiW2bt2GhA-y1kw87gxlMhtrKVsmj9-cKTZ_i-pRf_yrOK2JRV9l9tpa1B-eXlKNts6HpfinTsaWSvBeBA52MN-_Tk2oBhzd4dtgnOb_hSo0WwsAdOtS-CVm00]--></g></svg>