<svg xmlns="http://www.w3.org/2000/svg" xmlns:xlink="http://www.w3.org/1999/xlink" contentStyleType="text/css" data-diagram-type="CLASS" height="529px" preserveAspectRatio="none" style="width:837px;height:529px;background:#FFFFFF;" version="1.1" viewBox="0 0 837 529" width="837px" zoomAndPan="magnify"><title>Hypercert ERD</title><defs/><g><g class="title" data-source-line="1"><text fill="#000000" font-family="sans-serif" font-size="24" font-weight="bold" lengthAdjust="spacing" textLength="157.0547" x="333.1243" y="32.2656">Hypercert ERD</text></g><!--class contributors--><g class="entity" data-entity="contributors" data-source-line="30" data-uid="ent0002" id="entity_contributors"><rect fill="#FFD4A3" height="32" rx="2.5" ry="2.5" style="stroke:#181818;stroke-width:0.5;" width="107.8857" x="527.07" y="161.125"/><ellipse cx="542.07" cy="177.125" fill="#ADD1B2" rx="11" ry="11" style="stroke:#181818;stroke-width:1;"/><path d="M538.1325,183.125 L545.6481,183.125 L545.6481,181.0156 L540.6481,181.0156 L540.6481,178.4688 L544.7419,178.4688 L544.7419,176.375 L540.6481,176.375 L540.6481,174.1563 L545.4763,174.1563 L545.4763,172.0469 L538.1325,172.0469 L538.1325,183.125 Z " fill="#000000"/><text fill="#000000" font-family="sans-serif" font-size="14" lengthAdjust="spacing" textLength="75.8857" x="556.07" y="181.9102">contributors</text></g><!--class claim--><g class="entity" data-entity="claim" data-source-line="31" data-uid="ent0003" id="entity_claim"><rect fill="#B4E5D0" height="33.4375" rx="2.5" ry="2.5" style="stroke:#181818;stroke-width:0.5;" width="147.8594" x="449.08" y="383.115"/><ellipse cx="464.08" cy="399.8338" fill="#7E57C2" rx="11" ry="11" style="stroke:#181818;stroke-width:1;"/><path d="M461.2675,405.8338 L464.4863,405.8338 C467.5644,405.8338 469.6738,404.0525 469.6738,400.24 C469.6738,396.4275 467.5644,394.7556 464.33,394.7556 L461.2675,394.7556 L461.2675,405.8338 Z M463.7831,403.8181 L463.7831,396.7713 L464.1894,396.7713 C465.9238,396.7713 467.0956,397.5838 467.0956,400.24 C467.0956,402.8963 465.9238,403.8181 464.1894,403.8181 L463.7831,403.8181 Z " fill="#000000"/><text fill="#000000" font-family="sans-serif" font-size="20" font-weight="bold" lengthAdjust="spacing" textLength="115.8594" x="478.08" y="406.6697">impact claim</text></g><!--class evidence--><g class="entity" data-entity="evidence" data-source-line="32" data-uid="ent0004" id="entity_evidence"><rect fill="#F1F1F1" height="32" rx="2.5" ry="2.5" style="stroke:#181818;stroke-width:0.5;" width="87.4121" x="201.31" y="266.115"/><ellipse cx="216.31" cy="282.115" fill="#7E57C2" rx="11" ry="11" style="stroke:#181818;stroke-width:1;"/><path d="M213.4975,288.115 L216.7163,288.115 C219.7944,288.115 221.9038,286.3338 221.9038,282.5213 C221.9038,278.7088 219.7944,277.0369 216.56,277.0369 L213.4975,277.0369 L213.4975,288.115 Z M216.0131,286.0994 L216.0131,279.0525 L216.4194,279.0525 C218.1538,279.0525 219.3256,279.865 219.3256,282.5213 C219.3256,285.1775 218.1538,286.0994 216.4194,286.0994 L216.0131,286.0994 Z " fill="#000000"/><text fill="#000000" font-family="sans-serif" font-size="14" lengthAdjust="spacing" textLength="55.4121" x="230.31" y="286.9002">evidence</text></g><!--class measurements--><g class="entity" data-entity="measurements" data-source-line="33" data-uid="ent0005" id="entity_measurements"><rect fill="#F1F1F1" height="32" rx="2.5" ry="2.5" style="stroke:#181818;stroke-width:0.5;" width="125.666" x="325.18" y="266.115"/><ellipse cx="340.18" cy="282.115" fill="#7E57C2" rx="11" ry="11" style="stroke:#181818;stroke-width:1;"/><path d="M337.3675,288.115 L340.5863,288.115 C343.6644,288.115 345.7738,286.3338 345.7738,282.5213 C345.7738,278.7088 343.6644,277.0369 340.43,277.0369 L337.3675,277.0369 L337.3675,288.115 Z M339.8831,286.0994 L339.8831,279.0525 L340.2894,279.0525 C342.0238,279.0525 343.1956,279.865 343.1956,282.5213 C343.1956,285.1775 342.0238,286.0994 340.2894,286.0994 L339.8831,286.0994 Z " fill="#000000"/><text fill="#000000" font-family="sans-serif" font-size="14" lengthAdjust="spacing" textLength="93.666" x="354.18" y="286.9002">measurements</text></g><!--class evaluations--><g class="entity" data-entity="evaluations" data-source-line="34" data-uid="ent0006" id="entity_evaluations"><rect fill="#F1F1F1" height="32" rx="2.5" ry="2.5" style="stroke:#181818;stroke-width:0.5;" width="103.4834" x="25.27" y="161.125"/><ellipse cx="40.27" cy="177.125" fill="#7E57C2" rx="11" ry="11" style="stroke:#181818;stroke-width:1;"/><path d="M37.4575,183.125 L40.6762,183.125 C43.7544,183.125 45.8637,181.3438 45.8637,177.5313 C45.8637,173.7188 43.7544,172.0469 40.52,172.0469 L37.4575,172.0469 L37.4575,183.125 Z M39.9731,181.1094 L39.9731,174.0625 L40.3794,174.0625 C42.1137,174.0625 43.2856,174.875 43.2856,177.5313 C43.2856,180.1875 42.1137,181.1094 40.3794,181.1094 L39.9731,181.1094 Z " fill="#000000"/><text fill="#000000" font-family="sans-serif" font-size="14" lengthAdjust="spacing" textLength="71.4834" x="54.27" y="181.9102">evaluations</text></g><!--class contributions--><g class="entity" data-entity="contributions" data-source-line="35" data-uid="ent0007" id="entity_contributions"><rect fill="#F1F1F1" height="32" rx="2.5" ry="2.5" style="stroke:#181818;stroke-width:0.5;" width="114.2773" x="588.88" y="266.115"/><ellipse cx="603.88" cy="282.115" fill="#7E57C2" rx="11" ry="11" style="stroke:#181818;stroke-width:1;"/><path d="M601.0675,288.115 L604.2863,288.115 C607.3644,288.115 609.4738,286.3338 609.4738,282.5213 C609.4738,278.7088 607.3644,277.0369 604.13,277.0369 L601.0675,277.0369 L601.0675,288.115 Z M603.5831,286.0994 L603.5831,279.0525 L603.9894,279.0525 C605.7238,279.0525 606.8956,279.865 606.8956,282.5213 C606.8956,285.1775 605.7238,286.0994 603.9894,286.0994 L603.5831,286.0994 Z " fill="#000000"/><text fill="#000000" font-family="sans-serif" font-size="14" lengthAdjust="spacing" textLength="82.2773" x="617.88" y="286.9002">contributions</text></g><!--class location--><g class="entity" data-entity="location" data-source-line="36" data-uid="ent0008" id="entity_location"><rect fill="#F1F1F1" height="32" rx="2.5" ry="2.5" style="stroke:#181818;stroke-width:0.5;" width="82.0322" x="326" y="490.275"/><ellipse cx="341" cy="506.275" fill="#7E57C2" rx="11" ry="11" style="stroke:#181818;stroke-width:1;"/><path d="M338.1875,512.275 L341.4063,512.275 C344.4844,512.275 346.5938,510.4938 346.5938,506.6813 C346.5938,502.8688 344.4844,501.1969 341.25,501.1969 L338.1875,501.1969 L338.1875,512.275 Z M340.7031,510.2594 L340.7031,503.2125 L341.1094,503.2125 C342.8438,503.2125 344.0156,504.025 344.0156,506.6813 C344.0156,509.3375 342.8438,510.2594 341.1094,510.2594 L340.7031,510.2594 Z " fill="#000000"/><text fill="#000000" font-family="sans-serif" font-size="14" lengthAdjust="spacing" textLength="50.0322" x="355" y="511.0602">location</text></g><!--class rights--><g class="entity" data-entity="rights" data-source-line="37" data-uid="ent0009" id="entity_rights"><rect fill="#F1F1F1" height="32" rx="2.5" ry="2.5" style="stroke:#181818;stroke-width:0.5;" width="67.5264" x="486.25" y="266.115"/><ellipse cx="501.25" cy="282.115" fill="#7E57C2" rx="11" ry="11" style="stroke:#181818;stroke-width:1;"/><path d="M498.4375,288.115 L501.6563,288.115 C504.7344,288.115 506.8438,286.3338 506.8438,282.5213 C506.8438,278.7088 504.7344,277.0369 501.5,277.0369 L498.4375,277.0369 L498.4375,288.115 Z M500.9531,286.0994 L500.9531,279.0525 L501.3594,279.0525 C503.0938,279.0525 504.2656,279.865 504.2656,282.5213 C504.2656,285.1775 503.0938,286.0994 501.3594,286.0994 L500.9531,286.0994 Z " fill="#000000"/><text fill="#000000" font-family="sans-serif" font-size="14" lengthAdjust="spacing" textLength="35.5264" x="515.25" y="286.9002">rights</text></g><!--class collection--><g class="entity" data-entity="collection" data-source-line="38" data-uid="ent0010" id="entity_collection"><rect fill="#F1F1F1" height="32" rx="2.5" ry="2.5" style="stroke:#181818;stroke-width:0.5;" width="92.5732" x="737.73" y="266.115"/><ellipse cx="752.73" cy="282.115" fill="#7E57C2" rx="11" ry="11" style="stroke:#181818;stroke-width:1;"/><path d="M749.9175,288.115 L753.1363,288.115 C756.2144,288.115 758.3238,286.3338 758.3238,282.5213 C758.3238,278.7088 756.2144,277.0369 752.98,277.0369 L749.9175,277.0369 L749.9175,288.115 Z M752.4331,286.0994 L752.4331,279.0525 L752.8394,279.0525 C754.5738,279.0525 755.7456,279.865 755.7456,282.5213 C755.7456,285.1775 754.5738,286.0994 752.8394,286.0994 L752.4331,286.0994 Z " fill="#000000"/><text fill="#000000" font-family="sans-serif" font-size="14" lengthAdjust="spacing" textLength="60.5732" x="766.73" y="286.9002">collection</text></g><!--class review_evidence--><g class="entity" data-entity="review_evidence" data-source-line="39" data-uid="ent0011" id="entity_review_evidence"><rect fill="#FFFACD" height="32" rx="2.5" ry="2.5" style="stroke:#181818;stroke-width:0.5;" width="131.1826" x="163.42" y="161.125"/><ellipse cx="178.42" cy="177.125" fill="#7E57C2" rx="11" ry="11" style="stroke:#181818;stroke-width:1;"/><path d="M175.6075,183.125 L178.8263,183.125 C181.9044,183.125 184.0138,181.3438 184.0138,177.5313 C184.0138,173.7188 181.9044,172.0469 178.67,172.0469 L175.6075,172.0469 L175.6075,183.125 Z M178.1231,181.1094 L178.1231,174.0625 L178.5294,174.0625 C180.2638,174.0625 181.4356,174.875 181.4356,177.5313 C181.4356,180.1875 180.2638,181.1094 178.5294,181.1094 L178.1231,181.1094 Z " fill="#000000"/><text fill="#000000" font-family="sans-serif" font-size="14" lengthAdjust="spacing" textLength="99.1826" x="192.42" y="181.9102">evidence review</text></g><!--class review_measurement--><g class="entity" data-entity="review_measurement" data-source-line="40" data-uid="ent0012" id="entity_review_measurement"><rect fill="#FFFACD" height="32" rx="2.5" ry="2.5" style="stroke:#181818;stroke-width:0.5;" width="162.2109" x="329.91" y="161.125"/><ellipse cx="344.91" cy="177.125" fill="#7E57C2" rx="11" ry="11" style="stroke:#181818;stroke-width:1;"/><path d="M342.0975,183.125 L345.3163,183.125 C348.3944,183.125 350.5038,181.3438 350.5038,177.5313 C350.5038,173.7188 348.3944,172.0469 345.16,172.0469 L342.0975,172.0469 L342.0975,183.125 Z M344.6131,181.1094 L344.6131,174.0625 L345.0194,174.0625 C346.7538,174.0625 347.9256,174.875 347.9256,177.5313 C347.9256,180.1875 346.7538,181.1094 345.0194,181.1094 L344.6131,181.1094 Z " fill="#000000"/><text fill="#000000" font-family="sans-serif" font-size="14" lengthAdjust="spacing" textLength="130.2109" x="358.91" y="181.9102">measurement review</text></g><!--class review_evaluation--><g class="entity" data-entity="review_evaluation" data-source-line="41" data-uid="ent0013" id="entity_review_evaluation"><rect fill="#FFFACD" height="32" rx="2.5" ry="2.5" style="stroke:#181818;stroke-width:0.5;" width="140.0283" x="7" y="56.125"/><ellipse cx="22" cy="72.125" fill="#7E57C2" rx="11" ry="11" style="stroke:#181818;stroke-width:1;"/><path d="M19.1875,78.125 L22.4063,78.125 C25.4844,78.125 27.5938,76.3438 27.5938,72.5313 C27.5938,68.7188 25.4844,67.0469 22.25,67.0469 L19.1875,67.0469 L19.1875,78.125 Z M21.7031,76.1094 L21.7031,69.0625 L22.1094,69.0625 C23.8438,69.0625 25.0156,69.875 25.0156,72.5313 C25.0156,75.1875 23.8438,76.1094 22.1094,76.1094 L21.7031,76.1094 Z " fill="#000000"/><text fill="#000000" font-family="sans-serif" font-size="14" lengthAdjust="spacing" textLength="108.0283" x="36" y="76.9102">evaluation review</text></g><!--class review_contribution--><g class="entity" data-entity="review_contribution" data-source-line="42" data-uid="ent0014" id="entity_review_contribution"><rect fill="#FFFACD" height="32" rx="2.5" ry="2.5" style="stroke:#181818;stroke-width:0.5;" width="150.8223" x="669.6" y="161.125"/><ellipse cx="684.6" cy="177.125" fill="#7E57C2" rx="11" ry="11" style="stroke:#181818;stroke-width:1;"/><path d="M681.7875,183.125 L685.0063,183.125 C688.0844,183.125 690.1938,181.3438 690.1938,177.5313 C690.1938,173.7188 688.0844,172.0469 684.85,172.0469 L681.7875,172.0469 L681.7875,183.125 Z M684.3031,181.1094 L684.3031,174.0625 L684.7094,174.0625 C686.4438,174.0625 687.6156,174.875 687.6156,177.5313 C687.6156,180.1875 686.4438,181.1094 684.7094,181.1094 L684.3031,181.1094 Z " fill="#000000"/><text fill="#000000" font-family="sans-serif" font-size="14" lengthAdjust="spacing" textLength="118.8223" x="698.6" y="181.9102">contribution review</text></g><!--class token--><g class="entity" data-entity="token" data-source-line="43" data-uid="ent0015" id="entity_token"><rect fill="#FFB6C1" height="33.4375" rx="2.5" ry="2.5" style="stroke:#181818;stroke-width:0.5;" width="82.7617" x="481.63" y="489.555"/><ellipse cx="496.63" cy="506.2738" fill="#F1F1F1" rx="11" ry="11" style="stroke:#181818;stroke-width:1;"/><path d="M493.4113,512.2738 L495.9113,512.2738 L495.9113,508.5238 L497.3331,508.5238 C499.6769,508.5238 501.6613,507.3675 501.6613,504.7581 C501.6613,502.0706 499.7238,501.1956 497.3331,501.1956 L493.4113,501.1956 L493.4113,512.2738 Z M495.9113,506.5238 L495.9113,503.18 L497.1769,503.18 C498.505,503.18 499.2238,503.6019 499.2238,504.7581 C499.2238,505.9144 498.5519,506.5238 497.1769,506.5238 L495.9113,506.5238 Z " fill="#000000"/><text fill="#000000" font-family="sans-serif" font-size="20" font-weight="bold" lengthAdjust="spacing" textLength="50.7617" x="510.63" y="513.1097">token</text></g><!--link evidence to claim--><g class="link" data-entity-1="evidence" data-entity-2="claim" data-source-line="45" data-uid="lnk16" id="link_evidence_claim"><path codeLine="45" d="M274.04,298.545 C302.78,313.505 348.27,336.345 389.01,353.115 C415.49,364.025 439.9159,372.614 464.8959,380.764" fill="none" id="evidence-to-claim" style="stroke:#666666;stroke-width:1;"/><polygon fill="#666666" points="470.6,382.625,463.2846,376.0307,465.8466,381.0741,460.8032,383.6362,470.6,382.625" style="stroke:#666666;stroke-width:1;"/><text fill="#666666" font-family="sans-serif" font-size="10" lengthAdjust="spacing" textLength="39.4287" x="390.01" y="344.3923">supports</text></g><!--link measurements to claim--><g class="link" data-entity-1="measurements" data-entity-2="claim" data-source-line="46" data-uid="lnk17" id="link_measurements_claim"><path codeLine="46" d="M405.1,298.615 C420.98,312.935 445.38,334.715 467.01,353.115 C478.77,363.125 487.4914,370.2962 498.2314,378.9662" fill="none" id="measurements-to-claim" style="stroke:#666666;stroke-width:1;"/><polygon fill="#666666" points="502.9,382.735,498.4096,373.9694,499.0095,379.5943,493.3845,380.1942,502.9,382.735" style="stroke:#666666;stroke-width:1;"/><text fill="#666666" font-family="sans-serif" font-size="10" lengthAdjust="spacing" textLength="44.2334" x="468.01" y="344.3923">quantifies</text></g><!--link measurements to location--><g class="link" data-entity-1="measurements" data-entity-2="location" data-source-line="47" data-uid="lnk18" id="link_measurements_location"><path codeLine="47" d="M386.57,298.385 C382.73,338.975 372.885,443.2217 369.035,483.9217" fill="none" id="measurements-to-location" style="stroke:#666666;stroke-width:1;"/><polygon fill="#666666" points="368.47,489.895,373.2998,481.3117,368.9409,484.9172,365.3353,480.5583,368.47,489.895" style="stroke:#666666;stroke-width:1;"/><text fill="#666666" font-family="sans-serif" font-size="10" lengthAdjust="spacing" textLength="45.8496" x="379.21" y="403.6123">located by</text></g><!--link evidence to location--><g class="link" data-entity-1="evidence" data-entity-2="location" data-source-line="48" data-uid="lnk19" id="link_evidence_location"><path codeLine="48" d="M253.4,298.385 C275.69,338.975 333.332,443.9358 355.682,484.6358" fill="none" id="evidence-to-location" style="stroke:#666666;stroke-width:1;"/><polygon fill="#666666" points="358.57,489.895,357.7441,480.0808,356.1633,485.5123,350.7318,483.9316,358.57,489.895" style="stroke:#666666;stroke-width:1;"/><text fill="#666666" font-family="sans-serif" font-size="10" lengthAdjust="spacing" textLength="45.8496" x="319.14" y="403.6123">located by</text></g><!--link evaluations to evidence--><g class="link" data-entity-1="evaluations" data-entity-2="evidence" data-source-line="49" data-uid="lnk20" id="link_evaluations_evidence"><path codeLine="49" d="M71.15,193.555 C67.4,206.285 64.78,224.145 74.01,236.115 C89.43,256.115 149.7035,268.1247 195.0635,274.7747" fill="none" id="evaluations-to-evidence" style="stroke:#666666;stroke-width:1;"/><polygon fill="#666666" points="201,275.645,192.6754,270.3818,196.0529,274.9197,191.515,278.2972,201,275.645" style="stroke:#666666;stroke-width:1;"/><text fill="#666666" font-family="sans-serif" font-size="10" lengthAdjust="spacing" textLength="42.7051" x="75.01" y="233.3923">evaluates</text></g><!--link evaluations to measurements--><g class="link" data-entity-1="evaluations" data-entity-2="measurements" data-source-line="50" data-uid="lnk21" id="link_evaluations_measurements"><path codeLine="50" d="M100.74,193.505 C121.84,206.555 153.92,224.895 184.01,236.115 C209.46,245.605 269.0524,258.2392 319.0224,268.0492" fill="none" id="evaluations-to-measurements" style="stroke:#666666;stroke-width:1;"/><polygon fill="#666666" points="324.91,269.205,316.8491,263.5462,320.0037,268.2418,315.308,271.3963,324.91,269.205" style="stroke:#666666;stroke-width:1;"/><text fill="#666666" font-family="sans-serif" font-size="10" lengthAdjust="spacing" textLength="42.7051" x="185.01" y="233.3923">evaluates</text></g><!--link rights to claim--><g class="link" data-entity-1="rights" data-entity-2="claim" data-source-line="51" data-uid="lnk22" id="link_rights_claim"><path codeLine="51" d="M520.41,298.245 C520.97,320.185 521.8643,354.627 522.4443,376.967" fill="none" id="rights-to-claim" style="stroke:#666666;stroke-width:1;"/><polygon fill="#666666" points="522.6,382.965,526.3651,373.8642,522.4702,377.9667,518.3678,374.0718,522.6,382.965" style="stroke:#666666;stroke-width:1;"/><text fill="#666666" font-family="sans-serif" font-size="10" lengthAdjust="spacing" textLength="32.8369" x="526.5739" y="338.3923">defines</text><text fill="#666666" font-family="sans-serif" font-size="10" lengthAdjust="spacing" textLength="40.4248" x="522.78" y="350.1111">rights for</text></g><!--reverse link claim to token--><g class="link" data-entity-1="claim" data-entity-2="token" data-source-line="52" data-uid="lnk23" id="link_claim_token"><path codeLine="52" d="M523.01,422.705 C523.01,442.335 523.01,469.565 523.01,489.265" fill="none" id="claim-backto-token" style="stroke:#666666;stroke-width:1;"/><polygon fill="#666666" points="523.01,416.705,519.01,425.705,523.01,421.705,527.01,425.705,523.01,416.705" style="stroke:#666666;stroke-width:1;"/><text fill="#666666" font-family="sans-serif" font-size="10" lengthAdjust="spacing" textLength="42.7246" x="524.01" y="456.8323">tokenizes</text></g><!--link contributors to contributions--><g class="link" data-entity-1="contributors" data-entity-2="contributions" data-source-line="53" data-uid="lnk24" id="link_contributors_contributions"><path codeLine="53" d="M590.61,193.315 C602.89,212.795 620.879,241.2802 633.179,260.7802" fill="none" id="contributors-to-contributions" style="stroke:#666666;stroke-width:1;"/><polygon fill="#666666" points="636.38,265.855,634.9617,256.1088,633.7125,261.626,628.1953,260.3768,636.38,265.855" style="stroke:#666666;stroke-width:1;"/><text fill="#666666" font-family="sans-serif" font-size="10" lengthAdjust="spacing" textLength="24.5801" x="618.41" y="233.3923">make</text></g><!--link contributors to rights--><g class="link" data-entity-1="contributors" data-entity-2="rights" data-source-line="54" data-uid="lnk25" id="link_contributors_rights"><path codeLine="54" d="M572.01,193.315 C560.48,212.795 543.6577,241.1926 532.1077,260.6926" fill="none" id="contributors-to-rights" style="stroke:#666666;stroke-width:1;"/><polygon fill="#666666" points="529.05,265.855,537.0782,260.1499,531.5981,261.553,530.195,256.0729,529.05,265.855" style="stroke:#666666;stroke-width:1;"/><text fill="#666666" font-family="sans-serif" font-size="10" lengthAdjust="spacing" textLength="21.0938" x="555.17" y="233.3923">have</text></g><!--link contributions to claim--><g class="link" data-entity-1="contributions" data-entity-2="claim" data-source-line="55" data-uid="lnk26" id="link_contributions_claim"><path codeLine="55" d="M629.88,298.445 C614.91,312.645 591.99,334.355 572.01,353.115 C561.5,362.995 554.0596,369.9446 544.6696,378.6946" fill="none" id="contributions-to-claim" style="stroke:#666666;stroke-width:1;"/><polygon fill="#666666" points="540.28,382.785,549.5913,379.5758,543.938,379.3763,544.1375,373.723,540.28,382.785" style="stroke:#666666;stroke-width:1;"/><text fill="#666666" font-family="sans-serif" font-size="10" lengthAdjust="spacing" textLength="61.8701" x="599.51" y="344.3923">contributes to</text></g><!--link claim to location--><g class="link" data-entity-1="claim" data-entity-2="location" data-source-line="56" data-uid="lnk27" id="link_claim_location"><path codeLine="56" d="M498.98,416.925 C469.32,436.785 424.236,466.9673 395.046,486.5073" fill="none" id="claim-to-location" style="stroke:#666666;stroke-width:1;"/><polygon fill="#666666" points="390.06,489.845,399.7641,488.1625,394.215,487.0636,395.3139,481.5145,390.06,489.845" style="stroke:#666666;stroke-width:1;"/><text fill="#666666" font-family="sans-serif" font-size="10" lengthAdjust="spacing" textLength="44.2139" x="455.35" y="456.8323">located at</text></g><!--link collection to claim--><g class="link" data-entity-1="collection" data-entity-2="claim" data-source-line="57" data-uid="lnk28" id="link_collection_claim"><path codeLine="57" d="M762.42,298.475 C739.94,313.915 703.3,337.595 669.01,353.115 C642.76,365.005 618.3005,373.3467 592.1805,380.9567" fill="none" id="collection-to-claim" style="stroke:#666666;stroke-width:1;"/><polygon fill="#666666" points="586.42,382.635,596.1796,383.9579,591.2204,381.2364,593.9419,376.2772,586.42,382.635" style="stroke:#666666;stroke-width:1;"/><text fill="#666666" font-family="sans-serif" font-size="10" lengthAdjust="spacing" textLength="30.9961" x="715.75" y="344.3923">groups</text></g><!--link review_evidence to evidence--><g class="link" data-entity-1="review_evidence" data-entity-2="evidence" data-source-line="58" data-uid="lnk29" id="link_review_evidence_evidence"><path codeLine="58" d="M231.38,193.315 C234.4,212.795 238.6887,240.4261 241.7187,259.9261" fill="none" id="review_evidence-to-evidence" style="stroke:#666666;stroke-width:1;"/><polygon fill="#666666" points="242.64,265.855,245.2107,256.3476,241.8723,260.9143,237.3056,257.5759,242.64,265.855" style="stroke:#666666;stroke-width:1;"/><text fill="#666666" font-family="sans-serif" font-size="10" lengthAdjust="spacing" textLength="42.7051" x="238.97" y="233.3923">evaluates</text></g><!--link review_measurement to measurements--><g class="link" data-entity-1="review_measurement" data-entity-2="measurements" data-source-line="59" data-uid="lnk30" id="link_review_measurement_measurements"><path codeLine="59" d="M407.62,193.315 C403.27,212.795 397.0892,240.4996 392.7292,259.9996" fill="none" id="review_measurement-to-measurements" style="stroke:#666666;stroke-width:1;"/><polygon fill="#666666" points="391.42,265.855,397.2874,257.9447,392.511,260.9755,389.4802,256.1991,391.42,265.855" style="stroke:#666666;stroke-width:1;"/><text fill="#666666" font-family="sans-serif" font-size="10" lengthAdjust="spacing" textLength="42.7051" x="401.89" y="233.3923">evaluates</text></g><!--link review_evaluation to evaluations--><g class="link" data-entity-1="review_evaluation" data-entity-2="evaluations" data-source-line="60" data-uid="lnk31" id="link_review_evaluation_evaluations"><path codeLine="60" d="M77.01,88.315 C77.01,107.795 77.01,135.355 77.01,154.855" fill="none" id="review_evaluation-to-evaluations" style="stroke:#666666;stroke-width:1;"/><polygon fill="#666666" points="77.01,160.855,81.01,151.855,77.01,155.855,73.01,151.855,77.01,160.855" style="stroke:#666666;stroke-width:1;"/><text fill="#666666" font-family="sans-serif" font-size="10" lengthAdjust="spacing" textLength="42.7051" x="78.01" y="128.4023">evaluates</text></g><!--link review_contribution to contributions--><g class="link" data-entity-1="review_contribution" data-entity-2="contributions" data-source-line="61" data-uid="lnk32" id="link_review_contribution_contributions"><path codeLine="61" d="M730.41,193.315 C711.69,212.795 683.5887,242.03 664.8387,261.53" fill="none" id="review_contribution-to-contributions" style="stroke:#666666;stroke-width:1;"/><polygon fill="#666666" points="660.68,265.855,669.8013,262.1399,664.1455,262.2508,664.0346,256.5951,660.68,265.855" style="stroke:#666666;stroke-width:1;"/><text fill="#666666" font-family="sans-serif" font-size="10" lengthAdjust="spacing" textLength="42.7051" x="702.44" y="233.3923">evaluates</text></g><!--SRC=[XLJVRzem47xtN-6bpsnqOtr020a8qIPLGigazMLIPP83h3fnPZkjsDJ_VHVd1tPgEZ-0kVlkxhllpXXk1D3esxa2bO4oT9l64I4ddWE5eZ9dUk0WSkrQ2Z0dsPkq0GNIOBmcv4CE1ru2JRS_lsyV7ZUx-rrARv8aMMtYmRbAqztWkxE7a8KsPm5BaikiBg0qz2-XU8obrzwRayZI_E1_W7wU-ROcckwboAtvbRoIJ32jOywEYXLT1gQKV76otIETZHHIkPoylEzxBPFRQLUo-Vmec3h26da4IK__HthngTE1e0OSjSuGf_Y-DbBfHibujlf2ScQOROz6lAXOPYZ-uaL4cMvlTB4OY2oNz6OzstwDfquSFEFioWmSKm5CrmeQyRM7PA9cXilIjGwqHdOXCujrJ8eVJyQF5GAo4Ihg6L65DtYnlRJNny7LRv8Jvh0EHBhUGF2bjs3LmHa8TGK817lkFhnIqaZidXhv1ELuHacoljlSuk3xRYUJPJVDETLrLKc5ChfJyX2_QuORWuyrWEcdWZ1xXPpkptwXQv1X-1OrXCpxlS1oOv1NtWMsc-2nRlyIzA-oynsa8jq6JoQTJlFs6n-G9jvpi8dSHKHemPxWBQhBFgSdzkou1yezdS436ejsJAx8mmovRBANvQXaNM6xe-szAc1WMT_NySs2jgalOmYWlOqCANU9-0S0]--></g></svg>